<?xml version="1.0" encoding="utf-8" standalone="no"?>
<!DOCTYPE svg PUBLIC "-//W3C//DTD SVG 1.1//EN"
  "http://www.w3.org/Graphics/SVG/1.1/DTD/svg11.dtd">
<svg xmlns:xlink="http://www.w3.org/1999/xlink" width="504.48pt" height="525.598125pt" viewBox="0 0 504.48 525.598125" xmlns="http://www.w3.org/2000/svg" version="1.1">
 <metadata>
  <rdf:RDF xmlns:dc="http://purl.org/dc/elements/1.1/" xmlns:cc="http://creativecommons.org/ns#" xmlns:rdf="http://www.w3.org/1999/02/22-rdf-syntax-ns#">
   <cc:Work>
    <dc:type rdf:resource="http://purl.org/dc/dcmitype/StillImage"/>
    <dc:date>2026-04-27T15:09:18.593621</dc:date>
    <dc:format>image/svg+xml</dc:format>
    <dc:creator>
     <cc:Agent>
      <dc:title>Matplotlib v3.5.1, https://matplotlib.org/</dc:title>
     </cc:Agent>
    </dc:creator>
   </cc:Work>
  </rdf:RDF>
 </metadata>
 <defs>
  <style type="text/css">*{stroke-linejoin: round; stroke-linecap: butt}</style>
 </defs>
 <g id="figure_1">
  <g id="patch_1">
   <path d="M 0 525.598125 
L 504.48 525.598125 
L 504.48 0 
L 0 0 
z
" style="fill: #ffffff"/>
  </g>
  <g id="axes_1">
   <g id="line2d_1">
    <path d="M 448.272 273.358125 
L 428.858729 188.303028 
" clip-path="url(#p4fc634c013)" style="fill: none; stroke: #6c7ea0; stroke-opacity: 0.85; stroke-width: 1.8; stroke-linecap: square"/>
   </g>
   <g id="line2d_2">
    <path d="M 448.272 273.358125 
L 374.463953 120.094136 
" clip-path="url(#p4fc634c013)" style="fill: none; stroke: #6c7ea0; stroke-opacity: 0.5; stroke-width: 1.2; stroke-linecap: square"/>
   </g>
   <g id="line2d_3">
    <path d="M 448.272 273.358125 
L 295.861224 82.241057 
" clip-path="url(#p4fc634c013)" style="fill: none; stroke: #6c7ea0; stroke-opacity: 0.85; stroke-width: 1.8; stroke-linecap: square"/>
   </g>
   <g id="line2d_4">
    <path d="M 448.272 273.358125 
L 130.016047 426.622114 
" clip-path="url(#p4fc634c013)" style="fill: none; stroke: #6c7ea0; stroke-opacity: 0.85; stroke-width: 1.8; stroke-linecap: square"/>
   </g>
   <g id="line2d_5">
    <path d="M 448.272 273.358125 
L 295.861224 464.475193 
" clip-path="url(#p4fc634c013)" style="fill: none; stroke: #6c7ea0; stroke-opacity: 0.85; stroke-width: 1.8; stroke-linecap: square"/>
   </g>
   <g id="line2d_6">
    <path d="M 448.272 273.358125 
L 428.858729 358.413222 
" clip-path="url(#p4fc634c013)" style="fill: none; stroke: #6c7ea0; stroke-opacity: 0.85; stroke-width: 1.8; stroke-linecap: square"/>
   </g>
   <g id="line2d_7">
    <path d="M 428.858729 188.303028 
L 374.463953 120.094136 
" clip-path="url(#p4fc634c013)" style="fill: none; stroke: #6c7ea0; stroke-opacity: 0.85; stroke-width: 1.8; stroke-linecap: square"/>
   </g>
   <g id="line2d_8">
    <path d="M 428.858729 188.303028 
L 295.861224 82.241057 
" clip-path="url(#p4fc634c013)" style="fill: none; stroke: #6c7ea0; stroke-opacity: 0.85; stroke-width: 1.8; stroke-linecap: square"/>
   </g>
   <g id="line2d_9">
    <path d="M 428.858729 188.303028 
L 56.208 273.358125 
" clip-path="url(#p4fc634c013)" style="fill: none; stroke: #6c7ea0; stroke-opacity: 0.85; stroke-width: 1.8; stroke-linecap: square"/>
   </g>
   <g id="line2d_10">
    <path d="M 428.858729 188.303028 
L 130.016047 426.622114 
" clip-path="url(#p4fc634c013)" style="fill: none; stroke: #6c7ea0; stroke-opacity: 0.85; stroke-width: 1.8; stroke-linecap: square"/>
   </g>
   <g id="line2d_11">
    <path d="M 428.858729 188.303028 
L 428.858729 358.413222 
" clip-path="url(#p4fc634c013)" style="fill: none; stroke: #6c7ea0; stroke-opacity: 0.85; stroke-width: 1.8; stroke-linecap: square"/>
   </g>
   <g id="line2d_12">
    <path d="M 374.463953 120.094136 
L 56.208 273.358125 
" clip-path="url(#p4fc634c013)" style="fill: none; stroke: #6c7ea0; stroke-opacity: 0.85; stroke-width: 1.8; stroke-linecap: square"/>
   </g>
   <g id="line2d_13">
    <path d="M 374.463953 120.094136 
L 75.621271 358.413222 
" clip-path="url(#p4fc634c013)" style="fill: none; stroke: #6c7ea0; stroke-opacity: 0.85; stroke-width: 1.8; stroke-linecap: square"/>
   </g>
   <g id="line2d_14">
    <path d="M 374.463953 120.094136 
L 130.016047 426.622114 
" clip-path="url(#p4fc634c013)" style="fill: none; stroke: #6c7ea0; stroke-opacity: 0.85; stroke-width: 1.8; stroke-linecap: square"/>
   </g>
   <g id="line2d_15">
    <path d="M 374.463953 120.094136 
L 208.618776 464.475193 
" clip-path="url(#p4fc634c013)" style="fill: none; stroke: #6c7ea0; stroke-opacity: 0.5; stroke-width: 1.2; stroke-linecap: square"/>
   </g>
   <g id="line2d_16">
    <path d="M 374.463953 120.094136 
L 428.858729 358.413222 
" clip-path="url(#p4fc634c013)" style="fill: none; stroke: #6c7ea0; stroke-opacity: 0.85; stroke-width: 1.8; stroke-linecap: square"/>
   </g>
   <g id="line2d_17">
    <path d="M 295.861224 82.241057 
L 208.618776 82.241057 
" clip-path="url(#p4fc634c013)" style="fill: none; stroke: #6c7ea0; stroke-opacity: 0.85; stroke-width: 1.8; stroke-linecap: square"/>
   </g>
   <g id="line2d_18">
    <path d="M 295.861224 82.241057 
L 130.016047 426.622114 
" clip-path="url(#p4fc634c013)" style="fill: none; stroke: #6c7ea0; stroke-opacity: 0.85; stroke-width: 1.8; stroke-linecap: square"/>
   </g>
   <g id="line2d_19">
    <path d="M 295.861224 82.241057 
L 208.618776 464.475193 
" clip-path="url(#p4fc634c013)" style="fill: none; stroke: #6c7ea0; stroke-opacity: 0.85; stroke-width: 1.8; stroke-linecap: square"/>
   </g>
   <g id="line2d_20">
    <path d="M 295.861224 82.241057 
L 428.858729 358.413222 
" clip-path="url(#p4fc634c013)" style="fill: none; stroke: #6c7ea0; stroke-opacity: 0.85; stroke-width: 1.8; stroke-linecap: square"/>
   </g>
   <g id="line2d_21">
    <path d="M 208.618776 82.241057 
L 75.621271 188.303028 
" clip-path="url(#p4fc634c013)" style="fill: none; stroke: #6c7ea0; stroke-opacity: 0.85; stroke-width: 1.8; stroke-linecap: square"/>
   </g>
   <g id="line2d_22">
    <path d="M 208.618776 82.241057 
L 75.621271 358.413222 
" clip-path="url(#p4fc634c013)" style="fill: none; stroke: #6c7ea0; stroke-opacity: 0.85; stroke-width: 1.8; stroke-linecap: square"/>
   </g>
   <g id="line2d_23">
    <path d="M 208.618776 82.241057 
L 130.016047 426.622114 
" clip-path="url(#p4fc634c013)" style="fill: none; stroke: #6c7ea0; stroke-opacity: 0.85; stroke-width: 1.8; stroke-linecap: square"/>
   </g>
   <g id="line2d_24">
    <path d="M 208.618776 82.241057 
L 208.618776 464.475193 
" clip-path="url(#p4fc634c013)" style="fill: none; stroke: #6c7ea0; stroke-opacity: 0.85; stroke-width: 1.8; stroke-linecap: square"/>
   </g>
   <g id="line2d_25">
    <path d="M 208.618776 82.241057 
L 428.858729 358.413222 
" clip-path="url(#p4fc634c013)" style="fill: none; stroke: #6c7ea0; stroke-opacity: 0.85; stroke-width: 1.8; stroke-linecap: square"/>
   </g>
   <g id="line2d_26">
    <path d="M 130.016047 120.094136 
L 75.621271 188.303028 
" clip-path="url(#p4fc634c013)" style="fill: none; stroke: #6c7ea0; stroke-opacity: 0.85; stroke-width: 1.8; stroke-linecap: square"/>
   </g>
   <g id="line2d_27">
    <path d="M 130.016047 120.094136 
L 56.208 273.358125 
" clip-path="url(#p4fc634c013)" style="fill: none; stroke: #6c7ea0; stroke-opacity: 0.85; stroke-width: 1.8; stroke-linecap: square"/>
   </g>
   <g id="line2d_28">
    <path d="M 130.016047 120.094136 
L 75.621271 358.413222 
" clip-path="url(#p4fc634c013)" style="fill: none; stroke: #6c7ea0; stroke-opacity: 0.85; stroke-width: 1.8; stroke-linecap: square"/>
   </g>
   <g id="line2d_29">
    <path d="M 130.016047 120.094136 
L 208.618776 464.475193 
" clip-path="url(#p4fc634c013)" style="fill: none; stroke: #6c7ea0; stroke-opacity: 0.85; stroke-width: 1.8; stroke-linecap: square"/>
   </g>
   <g id="line2d_30">
    <path d="M 130.016047 120.094136 
L 295.861224 464.475193 
" clip-path="url(#p4fc634c013)" style="fill: none; stroke: #6c7ea0; stroke-opacity: 0.85; stroke-width: 1.8; stroke-linecap: square"/>
   </g>
   <g id="line2d_31">
    <path d="M 130.016047 120.094136 
L 374.463953 426.622114 
" clip-path="url(#p4fc634c013)" style="fill: none; stroke: #6c7ea0; stroke-opacity: 0.85; stroke-width: 1.8; stroke-linecap: square"/>
   </g>
   <g id="line2d_32">
    <path d="M 75.621271 188.303028 
L 75.621271 358.413222 
" clip-path="url(#p4fc634c013)" style="fill: none; stroke: #6c7ea0; stroke-opacity: 0.85; stroke-width: 1.8; stroke-linecap: square"/>
   </g>
   <g id="line2d_33">
    <path d="M 75.621271 188.303028 
L 208.618776 464.475193 
" clip-path="url(#p4fc634c013)" style="fill: none; stroke: #6c7ea0; stroke-opacity: 0.5; stroke-width: 1.2; stroke-linecap: square"/>
   </g>
   <g id="line2d_34">
    <path d="M 75.621271 188.303028 
L 295.861224 464.475193 
" clip-path="url(#p4fc634c013)" style="fill: none; stroke: #6c7ea0; stroke-opacity: 0.85; stroke-width: 1.8; stroke-linecap: square"/>
   </g>
   <g id="line2d_35">
    <path d="M 75.621271 188.303028 
L 428.858729 358.413222 
" clip-path="url(#p4fc634c013)" style="fill: none; stroke: #6c7ea0; stroke-opacity: 0.5; stroke-width: 1.2; stroke-linecap: square"/>
   </g>
   <g id="line2d_36">
    <path d="M 56.208 273.358125 
L 75.621271 358.413222 
" clip-path="url(#p4fc634c013)" style="fill: none; stroke: #6c7ea0; stroke-opacity: 0.5; stroke-width: 1.2; stroke-linecap: square"/>
   </g>
   <g id="line2d_37">
    <path d="M 56.208 273.358125 
L 295.861224 464.475193 
" clip-path="url(#p4fc634c013)" style="fill: none; stroke: #6c7ea0; stroke-opacity: 0.5; stroke-width: 1.2; stroke-linecap: square"/>
   </g>
   <g id="line2d_38">
    <path d="M 56.208 273.358125 
L 374.463953 426.622114 
" clip-path="url(#p4fc634c013)" style="fill: none; stroke: #6c7ea0; stroke-opacity: 0.85; stroke-width: 1.8; stroke-linecap: square"/>
   </g>
   <g id="line2d_39">
    <path d="M 56.208 273.358125 
L 428.858729 358.413222 
" clip-path="url(#p4fc634c013)" style="fill: none; stroke: #6c7ea0; stroke-opacity: 0.5; stroke-width: 1.2; stroke-linecap: square"/>
   </g>
   <g id="line2d_40">
    <path d="M 75.621271 358.413222 
L 208.618776 464.475193 
" clip-path="url(#p4fc634c013)" style="fill: none; stroke: #6c7ea0; stroke-opacity: 0.85; stroke-width: 1.8; stroke-linecap: square"/>
   </g>
   <g id="line2d_41">
    <path d="M 75.621271 358.413222 
L 374.463953 426.622114 
" clip-path="url(#p4fc634c013)" style="fill: none; stroke: #6c7ea0; stroke-opacity: 0.5; stroke-width: 1.2; stroke-linecap: square"/>
   </g>
   <g id="line2d_42">
    <path d="M 75.621271 358.413222 
L 428.858729 358.413222 
" clip-path="url(#p4fc634c013)" style="fill: none; stroke: #6c7ea0; stroke-opacity: 0.5; stroke-width: 1.2; stroke-linecap: square"/>
   </g>
   <g id="line2d_43">
    <path d="M 130.016047 426.622114 
L 374.463953 426.622114 
" clip-path="url(#p4fc634c013)" style="fill: none; stroke: #6c7ea0; stroke-opacity: 0.5; stroke-width: 1.2; stroke-linecap: square"/>
   </g>
   <g id="line2d_44">
    <path d="M 130.016047 426.622114 
L 428.858729 358.413222 
" clip-path="url(#p4fc634c013)" style="fill: none; stroke: #6c7ea0; stroke-opacity: 0.85; stroke-width: 1.8; stroke-linecap: square"/>
   </g>
   <g id="line2d_45">
    <path d="M 208.618776 464.475193 
L 295.861224 464.475193 
" clip-path="url(#p4fc634c013)" style="fill: none; stroke: #6c7ea0; stroke-opacity: 0.5; stroke-width: 1.2; stroke-linecap: square"/>
   </g>
   <g id="line2d_46">
    <path d="M 208.618776 464.475193 
L 374.463953 426.622114 
" clip-path="url(#p4fc634c013)" style="fill: none; stroke: #6c7ea0; stroke-opacity: 0.85; stroke-width: 1.8; stroke-linecap: square"/>
   </g>
   <g id="line2d_47">
    <path d="M 208.618776 464.475193 
L 428.858729 358.413222 
" clip-path="url(#p4fc634c013)" style="fill: none; stroke: #6c7ea0; stroke-opacity: 0.5; stroke-width: 1.2; stroke-linecap: square"/>
   </g>
   <g id="line2d_48">
    <path d="M 295.861224 464.475193 
L 374.463953 426.622114 
" clip-path="url(#p4fc634c013)" style="fill: none; stroke: #6c7ea0; stroke-opacity: 0.85; stroke-width: 1.8; stroke-linecap: square"/>
   </g>
   <g id="PathCollection_1">
    <defs>
     <path id="maf2a324a5d" d="M 0 18.708287 
C 4.961496 18.708287 9.720449 16.737064 13.228757 13.228757 
C 16.737064 9.720449 18.708287 4.961496 18.708287 0 
C 18.708287 -4.961496 16.737064 -9.720449 13.228757 -13.228757 
C 9.720449 -16.737064 4.961496 -18.708287 0 -18.708287 
C -4.961496 -18.708287 -9.720449 -16.737064 -13.228757 -13.228757 
C -16.737064 -9.720449 -18.708287 -4.961496 -18.708287 0 
C -18.708287 4.961496 -16.737064 9.720449 -13.228757 13.228757 
C -9.720449 16.737064 -4.961496 18.708287 0 18.708287 
z
" style="stroke: #5f7f4a; stroke-width: 2.6"/>
    </defs>
    <g clip-path="url(#p4fc634c013)">
     <use xlink:href="#maf2a324a5d" x="448.272" y="273.358125" style="fill: #c6ddab; stroke: #5f7f4a; stroke-width: 2.6"/>
     <use xlink:href="#maf2a324a5d" x="428.858729" y="188.303028" style="fill: #c6ddab; stroke: #5f7f4a; stroke-width: 2.6"/>
     <use xlink:href="#maf2a324a5d" x="374.463953" y="120.094136" style="fill: #c6ddab; stroke: #5f7f4a; stroke-width: 2.6"/>
     <use xlink:href="#maf2a324a5d" x="295.861224" y="82.241057" style="fill: #c6ddab; stroke: #5f7f4a; stroke-width: 2.6"/>
     <use xlink:href="#maf2a324a5d" x="208.618776" y="82.241057" style="fill: #c6ddab; stroke: #5f7f4a; stroke-width: 2.6"/>
     <use xlink:href="#maf2a324a5d" x="130.016047" y="120.094136" style="fill: #c6ddab; stroke: #5f7f4a; stroke-width: 2.6"/>
     <use xlink:href="#maf2a324a5d" x="75.621271" y="188.303028" style="fill: #c6ddab; stroke: #5f7f4a; stroke-width: 2.6"/>
     <use xlink:href="#maf2a324a5d" x="56.208" y="273.358125" style="fill: #c6ddab; stroke: #5f7f4a; stroke-width: 2.6"/>
     <use xlink:href="#maf2a324a5d" x="75.621271" y="358.413222" style="fill: #c6ddab; stroke: #5f7f4a; stroke-width: 2.6"/>
     <use xlink:href="#maf2a324a5d" x="130.016047" y="426.622114" style="fill: #c6ddab; stroke: #5f7f4a; stroke-width: 2.6"/>
     <use xlink:href="#maf2a324a5d" x="208.618776" y="464.475193" style="fill: #c6ddab; stroke: #5f7f4a; stroke-width: 2.6"/>
     <use xlink:href="#maf2a324a5d" x="295.861224" y="464.475193" style="fill: #c6ddab; stroke: #5f7f4a; stroke-width: 2.6"/>
     <use xlink:href="#maf2a324a5d" x="374.463953" y="426.622114" style="fill: #c6ddab; stroke: #5f7f4a; stroke-width: 2.6"/>
     <use xlink:href="#maf2a324a5d" x="428.858729" y="358.413222" style="fill: #c6ddab; stroke: #5f7f4a; stroke-width: 2.6"/>
    </g>
   </g>
   <g id="text_1">
    <!-- S2 -->
    <g style="fill: #2f4a26" transform="translate(437.652469 277.497188)scale(0.15 -0.15)">
     <defs>
      <path id="DejaVuSans-Bold-53" d="M 3834 4519 
L 3834 3531 
Q 3450 3703 3084 3790 
Q 2719 3878 2394 3878 
Q 1963 3878 1756 3759 
Q 1550 3641 1550 3391 
Q 1550 3203 1689 3098 
Q 1828 2994 2194 2919 
L 2706 2816 
Q 3484 2659 3812 2340 
Q 4141 2022 4141 1434 
Q 4141 663 3683 286 
Q 3225 -91 2284 -91 
Q 1841 -91 1394 -6 
Q 947 78 500 244 
L 500 1259 
Q 947 1022 1364 901 
Q 1781 781 2169 781 
Q 2563 781 2772 912 
Q 2981 1044 2981 1288 
Q 2981 1506 2839 1625 
Q 2697 1744 2272 1838 
L 1806 1941 
Q 1106 2091 782 2419 
Q 459 2747 459 3303 
Q 459 4000 909 4375 
Q 1359 4750 2203 4750 
Q 2588 4750 2994 4692 
Q 3400 4634 3834 4519 
z
" transform="scale(0.015625)"/>
      <path id="DejaVuSans-Bold-32" d="M 1844 884 
L 3897 884 
L 3897 0 
L 506 0 
L 506 884 
L 2209 2388 
Q 2438 2594 2547 2791 
Q 2656 2988 2656 3200 
Q 2656 3528 2436 3728 
Q 2216 3928 1850 3928 
Q 1569 3928 1234 3808 
Q 900 3688 519 3450 
L 519 4475 
Q 925 4609 1322 4679 
Q 1719 4750 2100 4750 
Q 2938 4750 3402 4381 
Q 3866 4013 3866 3353 
Q 3866 2972 3669 2642 
Q 3472 2313 2841 1759 
L 1844 884 
z
" transform="scale(0.015625)"/>
     </defs>
     <use xlink:href="#DejaVuSans-Bold-53"/>
     <use xlink:href="#DejaVuSans-Bold-32" x="72.021484"/>
    </g>
   </g>
   <g id="text_2">
    <!-- S3 -->
    <g style="fill: #2f4a26" transform="translate(418.239198 192.44209)scale(0.15 -0.15)">
     <defs>
      <path id="DejaVuSans-Bold-33" d="M 2981 2516 
Q 3453 2394 3698 2092 
Q 3944 1791 3944 1325 
Q 3944 631 3412 270 
Q 2881 -91 1863 -91 
Q 1503 -91 1142 -33 
Q 781 25 428 141 
L 428 1069 
Q 766 900 1098 814 
Q 1431 728 1753 728 
Q 2231 728 2486 893 
Q 2741 1059 2741 1369 
Q 2741 1688 2480 1852 
Q 2219 2016 1709 2016 
L 1228 2016 
L 1228 2791 
L 1734 2791 
Q 2188 2791 2409 2933 
Q 2631 3075 2631 3366 
Q 2631 3634 2415 3781 
Q 2200 3928 1806 3928 
Q 1516 3928 1219 3862 
Q 922 3797 628 3669 
L 628 4550 
Q 984 4650 1334 4700 
Q 1684 4750 2022 4750 
Q 2931 4750 3382 4451 
Q 3834 4153 3834 3553 
Q 3834 3144 3618 2883 
Q 3403 2622 2981 2516 
z
" transform="scale(0.015625)"/>
     </defs>
     <use xlink:href="#DejaVuSans-Bold-53"/>
     <use xlink:href="#DejaVuSans-Bold-33" x="72.021484"/>
    </g>
   </g>
   <g id="text_3">
    <!-- S4 -->
    <g style="fill: #2f4a26" transform="translate(363.844422 124.233198)scale(0.15 -0.15)">
     <defs>
      <path id="DejaVuSans-Bold-34" d="M 2356 3675 
L 1038 1722 
L 2356 1722 
L 2356 3675 
z
M 2156 4666 
L 3494 4666 
L 3494 1722 
L 4159 1722 
L 4159 850 
L 3494 850 
L 3494 0 
L 2356 0 
L 2356 850 
L 288 850 
L 288 1881 
L 2156 4666 
z
" transform="scale(0.015625)"/>
     </defs>
     <use xlink:href="#DejaVuSans-Bold-53"/>
     <use xlink:href="#DejaVuSans-Bold-34" x="72.021484"/>
    </g>
   </g>
   <g id="text_4">
    <!-- S7 -->
    <g style="fill: #2f4a26" transform="translate(285.241692 86.380119)scale(0.15 -0.15)">
     <defs>
      <path id="DejaVuSans-Bold-37" d="M 428 4666 
L 3944 4666 
L 3944 3988 
L 2125 0 
L 953 0 
L 2675 3781 
L 428 3781 
L 428 4666 
z
" transform="scale(0.015625)"/>
     </defs>
     <use xlink:href="#DejaVuSans-Bold-53"/>
     <use xlink:href="#DejaVuSans-Bold-37" x="72.021484"/>
    </g>
   </g>
   <g id="text_5">
    <!-- S8 -->
    <g style="fill: #2f4a26" transform="translate(197.999245 86.380119)scale(0.15 -0.15)">
     <defs>
      <path id="DejaVuSans-Bold-38" d="M 2228 2088 
Q 1891 2088 1709 1903 
Q 1528 1719 1528 1375 
Q 1528 1031 1709 848 
Q 1891 666 2228 666 
Q 2563 666 2741 848 
Q 2919 1031 2919 1375 
Q 2919 1722 2741 1905 
Q 2563 2088 2228 2088 
z
M 1350 2484 
Q 925 2613 709 2878 
Q 494 3144 494 3541 
Q 494 4131 934 4440 
Q 1375 4750 2228 4750 
Q 3075 4750 3515 4442 
Q 3956 4134 3956 3541 
Q 3956 3144 3739 2878 
Q 3522 2613 3097 2484 
Q 3572 2353 3814 2058 
Q 4056 1763 4056 1313 
Q 4056 619 3595 264 
Q 3134 -91 2228 -91 
Q 1319 -91 855 264 
Q 391 619 391 1313 
Q 391 1763 633 2058 
Q 875 2353 1350 2484 
z
M 1631 3419 
Q 1631 3141 1786 2991 
Q 1941 2841 2228 2841 
Q 2509 2841 2662 2991 
Q 2816 3141 2816 3419 
Q 2816 3697 2662 3845 
Q 2509 3994 2228 3994 
Q 1941 3994 1786 3844 
Q 1631 3694 1631 3419 
z
" transform="scale(0.015625)"/>
     </defs>
     <use xlink:href="#DejaVuSans-Bold-53"/>
     <use xlink:href="#DejaVuSans-Bold-38" x="72.021484"/>
    </g>
   </g>
   <g id="text_6">
    <!-- S9 -->
    <g style="fill: #2f4a26" transform="translate(119.396516 124.233198)scale(0.15 -0.15)">
     <defs>
      <path id="DejaVuSans-Bold-39" d="M 641 103 
L 641 966 
Q 928 831 1190 764 
Q 1453 697 1709 697 
Q 2247 697 2547 995 
Q 2847 1294 2900 1881 
Q 2688 1725 2447 1647 
Q 2206 1569 1925 1569 
Q 1209 1569 770 1986 
Q 331 2403 331 3084 
Q 331 3838 820 4291 
Q 1309 4744 2131 4744 
Q 3044 4744 3544 4128 
Q 4044 3513 4044 2388 
Q 4044 1231 3459 570 
Q 2875 -91 1856 -91 
Q 1528 -91 1228 -42 
Q 928 6 641 103 
z
M 2125 2350 
Q 2441 2350 2600 2554 
Q 2759 2759 2759 3169 
Q 2759 3575 2600 3781 
Q 2441 3988 2125 3988 
Q 1809 3988 1650 3781 
Q 1491 3575 1491 3169 
Q 1491 2759 1650 2554 
Q 1809 2350 2125 2350 
z
" transform="scale(0.015625)"/>
     </defs>
     <use xlink:href="#DejaVuSans-Bold-53"/>
     <use xlink:href="#DejaVuSans-Bold-39" x="72.021484"/>
    </g>
   </g>
   <g id="text_7">
    <!-- S11 -->
    <g style="fill: #2f4a26" transform="translate(59.78338 192.44209)scale(0.15 -0.15)">
     <defs>
      <path id="DejaVuSans-Bold-31" d="M 750 831 
L 1813 831 
L 1813 3847 
L 722 3622 
L 722 4441 
L 1806 4666 
L 2950 4666 
L 2950 831 
L 4013 831 
L 4013 0 
L 750 0 
L 750 831 
z
" transform="scale(0.015625)"/>
     </defs>
     <use xlink:href="#DejaVuSans-Bold-53"/>
     <use xlink:href="#DejaVuSans-Bold-31" x="72.021484"/>
     <use xlink:href="#DejaVuSans-Bold-31" x="141.601562"/>
    </g>
   </g>
   <g id="text_8">
    <!-- S12 -->
    <g style="fill: #2f4a26" transform="translate(40.370109 277.497187)scale(0.15 -0.15)">
     <use xlink:href="#DejaVuSans-Bold-53"/>
     <use xlink:href="#DejaVuSans-Bold-31" x="72.021484"/>
     <use xlink:href="#DejaVuSans-Bold-32" x="141.601562"/>
    </g>
   </g>
   <g id="text_9">
    <!-- S13 -->
    <g style="fill: #2f4a26" transform="translate(59.78338 362.552285)scale(0.15 -0.15)">
     <use xlink:href="#DejaVuSans-Bold-53"/>
     <use xlink:href="#DejaVuSans-Bold-31" x="72.021484"/>
     <use xlink:href="#DejaVuSans-Bold-33" x="141.601562"/>
    </g>
   </g>
   <g id="text_10">
    <!-- S14 -->
    <g style="fill: #2f4a26" transform="translate(114.178157 430.761177)scale(0.15 -0.15)">
     <use xlink:href="#DejaVuSans-Bold-53"/>
     <use xlink:href="#DejaVuSans-Bold-31" x="72.021484"/>
     <use xlink:href="#DejaVuSans-Bold-34" x="141.601562"/>
    </g>
   </g>
   <g id="text_11">
    <!-- S15 -->
    <g style="fill: #2f4a26" transform="translate(192.780886 468.614256)scale(0.15 -0.15)">
     <defs>
      <path id="DejaVuSans-Bold-35" d="M 678 4666 
L 3669 4666 
L 3669 3781 
L 1638 3781 
L 1638 3059 
Q 1775 3097 1914 3117 
Q 2053 3138 2203 3138 
Q 3056 3138 3531 2711 
Q 4006 2284 4006 1522 
Q 4006 766 3489 337 
Q 2972 -91 2053 -91 
Q 1656 -91 1267 -14 
Q 878 63 494 219 
L 494 1166 
Q 875 947 1217 837 
Q 1559 728 1863 728 
Q 2300 728 2551 942 
Q 2803 1156 2803 1522 
Q 2803 1891 2551 2103 
Q 2300 2316 1863 2316 
Q 1603 2316 1309 2248 
Q 1016 2181 678 2041 
L 678 4666 
z
" transform="scale(0.015625)"/>
     </defs>
     <use xlink:href="#DejaVuSans-Bold-53"/>
     <use xlink:href="#DejaVuSans-Bold-31" x="72.021484"/>
     <use xlink:href="#DejaVuSans-Bold-35" x="141.601562"/>
    </g>
   </g>
   <g id="text_12">
    <!-- S17 -->
    <g style="fill: #2f4a26" transform="translate(280.023333 468.614256)scale(0.15 -0.15)">
     <use xlink:href="#DejaVuSans-Bold-53"/>
     <use xlink:href="#DejaVuSans-Bold-31" x="72.021484"/>
     <use xlink:href="#DejaVuSans-Bold-37" x="141.601562"/>
    </g>
   </g>
   <g id="text_13">
    <!-- S20 -->
    <g style="fill: #2f4a26" transform="translate(358.626062 430.761177)scale(0.15 -0.15)">
     <defs>
      <path id="DejaVuSans-Bold-30" d="M 2944 2338 
Q 2944 3213 2780 3570 
Q 2616 3928 2228 3928 
Q 1841 3928 1675 3570 
Q 1509 3213 1509 2338 
Q 1509 1453 1675 1090 
Q 1841 728 2228 728 
Q 2613 728 2778 1090 
Q 2944 1453 2944 2338 
z
M 4147 2328 
Q 4147 1169 3647 539 
Q 3147 -91 2228 -91 
Q 1306 -91 806 539 
Q 306 1169 306 2328 
Q 306 3491 806 4120 
Q 1306 4750 2228 4750 
Q 3147 4750 3647 4120 
Q 4147 3491 4147 2328 
z
" transform="scale(0.015625)"/>
     </defs>
     <use xlink:href="#DejaVuSans-Bold-53"/>
     <use xlink:href="#DejaVuSans-Bold-32" x="72.021484"/>
     <use xlink:href="#DejaVuSans-Bold-30" x="141.601562"/>
    </g>
   </g>
   <g id="text_14">
    <!-- S21 -->
    <g style="fill: #2f4a26" transform="translate(413.020838 362.552285)scale(0.15 -0.15)">
     <use xlink:href="#DejaVuSans-Bold-53"/>
     <use xlink:href="#DejaVuSans-Bold-32" x="72.021484"/>
     <use xlink:href="#DejaVuSans-Bold-31" x="141.601562"/>
    </g>
   </g>
   <g id="text_15">
    <!-- Sensor connection graph -->
    <g transform="translate(167.714063 16.318125)scale(0.12 -0.12)">
     <defs>
      <path id="DejaVuSans-Bold-65" d="M 4031 1759 
L 4031 1441 
L 1416 1441 
Q 1456 1047 1700 850 
Q 1944 653 2381 653 
Q 2734 653 3104 758 
Q 3475 863 3866 1075 
L 3866 213 
Q 3469 63 3072 -14 
Q 2675 -91 2278 -91 
Q 1328 -91 801 392 
Q 275 875 275 1747 
Q 275 2603 792 3093 
Q 1309 3584 2216 3584 
Q 3041 3584 3536 3087 
Q 4031 2591 4031 1759 
z
M 2881 2131 
Q 2881 2450 2695 2645 
Q 2509 2841 2209 2841 
Q 1884 2841 1681 2658 
Q 1478 2475 1428 2131 
L 2881 2131 
z
" transform="scale(0.015625)"/>
      <path id="DejaVuSans-Bold-6e" d="M 4056 2131 
L 4056 0 
L 2931 0 
L 2931 347 
L 2931 1631 
Q 2931 2084 2911 2256 
Q 2891 2428 2841 2509 
Q 2775 2619 2662 2680 
Q 2550 2741 2406 2741 
Q 2056 2741 1856 2470 
Q 1656 2200 1656 1722 
L 1656 0 
L 538 0 
L 538 3500 
L 1656 3500 
L 1656 2988 
Q 1909 3294 2193 3439 
Q 2478 3584 2822 3584 
Q 3428 3584 3742 3212 
Q 4056 2841 4056 2131 
z
" transform="scale(0.015625)"/>
      <path id="DejaVuSans-Bold-73" d="M 3272 3391 
L 3272 2541 
Q 2913 2691 2578 2766 
Q 2244 2841 1947 2841 
Q 1628 2841 1473 2761 
Q 1319 2681 1319 2516 
Q 1319 2381 1436 2309 
Q 1553 2238 1856 2203 
L 2053 2175 
Q 2913 2066 3209 1816 
Q 3506 1566 3506 1031 
Q 3506 472 3093 190 
Q 2681 -91 1863 -91 
Q 1516 -91 1145 -36 
Q 775 19 384 128 
L 384 978 
Q 719 816 1070 734 
Q 1422 653 1784 653 
Q 2113 653 2278 743 
Q 2444 834 2444 1013 
Q 2444 1163 2330 1236 
Q 2216 1309 1875 1350 
L 1678 1375 
Q 931 1469 631 1722 
Q 331 1975 331 2491 
Q 331 3047 712 3315 
Q 1094 3584 1881 3584 
Q 2191 3584 2531 3537 
Q 2872 3491 3272 3391 
z
" transform="scale(0.015625)"/>
      <path id="DejaVuSans-Bold-6f" d="M 2203 2784 
Q 1831 2784 1636 2517 
Q 1441 2250 1441 1747 
Q 1441 1244 1636 976 
Q 1831 709 2203 709 
Q 2569 709 2762 976 
Q 2956 1244 2956 1747 
Q 2956 2250 2762 2517 
Q 2569 2784 2203 2784 
z
M 2203 3584 
Q 3106 3584 3614 3096 
Q 4122 2609 4122 1747 
Q 4122 884 3614 396 
Q 3106 -91 2203 -91 
Q 1297 -91 786 396 
Q 275 884 275 1747 
Q 275 2609 786 3096 
Q 1297 3584 2203 3584 
z
" transform="scale(0.015625)"/>
      <path id="DejaVuSans-Bold-72" d="M 3138 2547 
Q 2991 2616 2845 2648 
Q 2700 2681 2553 2681 
Q 2122 2681 1889 2404 
Q 1656 2128 1656 1613 
L 1656 0 
L 538 0 
L 538 3500 
L 1656 3500 
L 1656 2925 
Q 1872 3269 2151 3426 
Q 2431 3584 2822 3584 
Q 2878 3584 2943 3579 
Q 3009 3575 3134 3559 
L 3138 2547 
z
" transform="scale(0.015625)"/>
      <path id="DejaVuSans-Bold-20" transform="scale(0.015625)"/>
      <path id="DejaVuSans-Bold-63" d="M 3366 3391 
L 3366 2478 
Q 3138 2634 2908 2709 
Q 2678 2784 2431 2784 
Q 1963 2784 1702 2511 
Q 1441 2238 1441 1747 
Q 1441 1256 1702 982 
Q 1963 709 2431 709 
Q 2694 709 2930 787 
Q 3166 866 3366 1019 
L 3366 103 
Q 3103 6 2833 -42 
Q 2563 -91 2291 -91 
Q 1344 -91 809 395 
Q 275 881 275 1747 
Q 275 2613 809 3098 
Q 1344 3584 2291 3584 
Q 2566 3584 2833 3536 
Q 3100 3488 3366 3391 
z
" transform="scale(0.015625)"/>
      <path id="DejaVuSans-Bold-74" d="M 1759 4494 
L 1759 3500 
L 2913 3500 
L 2913 2700 
L 1759 2700 
L 1759 1216 
Q 1759 972 1856 886 
Q 1953 800 2241 800 
L 2816 800 
L 2816 0 
L 1856 0 
Q 1194 0 917 276 
Q 641 553 641 1216 
L 641 2700 
L 84 2700 
L 84 3500 
L 641 3500 
L 641 4494 
L 1759 4494 
z
" transform="scale(0.015625)"/>
      <path id="DejaVuSans-Bold-69" d="M 538 3500 
L 1656 3500 
L 1656 0 
L 538 0 
L 538 3500 
z
M 538 4863 
L 1656 4863 
L 1656 3950 
L 538 3950 
L 538 4863 
z
" transform="scale(0.015625)"/>
      <path id="DejaVuSans-Bold-67" d="M 2919 594 
Q 2688 288 2409 144 
Q 2131 0 1766 0 
Q 1125 0 706 504 
Q 288 1009 288 1791 
Q 288 2575 706 3076 
Q 1125 3578 1766 3578 
Q 2131 3578 2409 3434 
Q 2688 3291 2919 2981 
L 2919 3500 
L 4044 3500 
L 4044 353 
Q 4044 -491 3511 -936 
Q 2978 -1381 1966 -1381 
Q 1638 -1381 1331 -1331 
Q 1025 -1281 716 -1178 
L 716 -306 
Q 1009 -475 1290 -558 
Q 1572 -641 1856 -641 
Q 2406 -641 2662 -400 
Q 2919 -159 2919 353 
L 2919 594 
z
M 2181 2772 
Q 1834 2772 1640 2515 
Q 1447 2259 1447 1791 
Q 1447 1309 1634 1061 
Q 1822 813 2181 813 
Q 2531 813 2725 1069 
Q 2919 1325 2919 1791 
Q 2919 2259 2725 2515 
Q 2531 2772 2181 2772 
z
" transform="scale(0.015625)"/>
      <path id="DejaVuSans-Bold-61" d="M 2106 1575 
Q 1756 1575 1579 1456 
Q 1403 1338 1403 1106 
Q 1403 894 1545 773 
Q 1688 653 1941 653 
Q 2256 653 2472 879 
Q 2688 1106 2688 1447 
L 2688 1575 
L 2106 1575 
z
M 3816 1997 
L 3816 0 
L 2688 0 
L 2688 519 
Q 2463 200 2181 54 
Q 1900 -91 1497 -91 
Q 953 -91 614 226 
Q 275 544 275 1050 
Q 275 1666 698 1953 
Q 1122 2241 2028 2241 
L 2688 2241 
L 2688 2328 
Q 2688 2594 2478 2717 
Q 2269 2841 1825 2841 
Q 1466 2841 1156 2769 
Q 847 2697 581 2553 
L 581 3406 
Q 941 3494 1303 3539 
Q 1666 3584 2028 3584 
Q 2975 3584 3395 3211 
Q 3816 2838 3816 1997 
z
" transform="scale(0.015625)"/>
      <path id="DejaVuSans-Bold-70" d="M 1656 506 
L 1656 -1331 
L 538 -1331 
L 538 3500 
L 1656 3500 
L 1656 2988 
Q 1888 3294 2169 3439 
Q 2450 3584 2816 3584 
Q 3463 3584 3878 3070 
Q 4294 2556 4294 1747 
Q 4294 938 3878 423 
Q 3463 -91 2816 -91 
Q 2450 -91 2169 54 
Q 1888 200 1656 506 
z
M 2400 2772 
Q 2041 2772 1848 2508 
Q 1656 2244 1656 1747 
Q 1656 1250 1848 986 
Q 2041 722 2400 722 
Q 2759 722 2948 984 
Q 3138 1247 3138 1747 
Q 3138 2247 2948 2509 
Q 2759 2772 2400 2772 
z
" transform="scale(0.015625)"/>
      <path id="DejaVuSans-Bold-68" d="M 4056 2131 
L 4056 0 
L 2931 0 
L 2931 347 
L 2931 1625 
Q 2931 2084 2911 2256 
Q 2891 2428 2841 2509 
Q 2775 2619 2662 2680 
Q 2550 2741 2406 2741 
Q 2056 2741 1856 2470 
Q 1656 2200 1656 1722 
L 1656 0 
L 538 0 
L 538 4863 
L 1656 4863 
L 1656 2988 
Q 1909 3294 2193 3439 
Q 2478 3584 2822 3584 
Q 3428 3584 3742 3212 
Q 4056 2841 4056 2131 
z
" transform="scale(0.015625)"/>
     </defs>
     <use xlink:href="#DejaVuSans-Bold-53"/>
     <use xlink:href="#DejaVuSans-Bold-65" x="72.021484"/>
     <use xlink:href="#DejaVuSans-Bold-6e" x="139.84375"/>
     <use xlink:href="#DejaVuSans-Bold-73" x="211.035156"/>
     <use xlink:href="#DejaVuSans-Bold-6f" x="270.556641"/>
     <use xlink:href="#DejaVuSans-Bold-72" x="339.257812"/>
     <use xlink:href="#DejaVuSans-Bold-20" x="388.574219"/>
     <use xlink:href="#DejaVuSans-Bold-63" x="423.388672"/>
     <use xlink:href="#DejaVuSans-Bold-6f" x="482.666016"/>
     <use xlink:href="#DejaVuSans-Bold-6e" x="551.367188"/>
     <use xlink:href="#DejaVuSans-Bold-6e" x="622.558594"/>
     <use xlink:href="#DejaVuSans-Bold-65" x="693.75"/>
     <use xlink:href="#DejaVuSans-Bold-63" x="761.572266"/>
     <use xlink:href="#DejaVuSans-Bold-74" x="820.849609"/>
     <use xlink:href="#DejaVuSans-Bold-69" x="868.652344"/>
     <use xlink:href="#DejaVuSans-Bold-6f" x="902.929688"/>
     <use xlink:href="#DejaVuSans-Bold-6e" x="971.630859"/>
     <use xlink:href="#DejaVuSans-Bold-20" x="1042.822266"/>
     <use xlink:href="#DejaVuSans-Bold-67" x="1077.636719"/>
     <use xlink:href="#DejaVuSans-Bold-72" x="1149.21875"/>
     <use xlink:href="#DejaVuSans-Bold-61" x="1198.535156"/>
     <use xlink:href="#DejaVuSans-Bold-70" x="1266.015625"/>
     <use xlink:href="#DejaVuSans-Bold-68" x="1337.597656"/>
    </g>
   </g>
  </g>
 </g>
 <defs>
  <clipPath id="p4fc634c013">
   <rect x="7.2" y="28.318125" width="490.08" height="490.08"/>
  </clipPath>
 </defs>
</svg>
