<?xml version="1.0" encoding="utf-8" standalone="no"?>
<!DOCTYPE svg PUBLIC "-//W3C//DTD SVG 1.1//EN"
  "http://www.w3.org/Graphics/SVG/1.1/DTD/svg11.dtd">
<svg xmlns:xlink="http://www.w3.org/1999/xlink" width="828pt" height="244.8pt" viewBox="0 0 828 244.8" xmlns="http://www.w3.org/2000/svg" version="1.1">
 <metadata>
  <rdf:RDF xmlns:dc="http://purl.org/dc/elements/1.1/" xmlns:cc="http://creativecommons.org/ns#" xmlns:rdf="http://www.w3.org/1999/02/22-rdf-syntax-ns#">
   <cc:Work>
    <dc:type rdf:resource="http://purl.org/dc/dcmitype/StillImage"/>
    <dc:date>2026-04-22T02:38:19.637969</dc:date>
    <dc:format>image/svg+xml</dc:format>
    <dc:creator>
     <cc:Agent>
      <dc:title>Matplotlib v3.5.1, https://matplotlib.org/</dc:title>
     </cc:Agent>
    </dc:creator>
   </cc:Work>
  </rdf:RDF>
 </metadata>
 <defs>
  <style type="text/css">*{stroke-linejoin: round; stroke-linecap: butt}</style>
 </defs>
 <g id="figure_1">
  <g id="patch_1">
   <path d="M 0 244.8 
L 828 244.8 
L 828 0 
L 0 0 
z
" style="fill: #ffffff"/>
  </g>
  <g id="axes_1">
   <g id="patch_2">
    <path d="M 52.85 202.84 
L 810.9135 202.84 
L 810.9135 25.44 
L 52.85 25.44 
z
" style="fill: #ffffff"/>
   </g>
   <g id="patch_3">
    <path d="M 53.608064 164.840698 
L 59.672572 164.840698 
L 59.672572 154.263419 
L 53.608064 154.263419 
z
" clip-path="url(#p113ddae0ca)" style="fill: #5fd6e8; opacity: 0.9"/>
   </g>
   <g id="patch_4">
    <path d="M 61.188699 164.840698 
L 67.253207 164.840698 
L 67.253207 131.379794 
L 61.188699 131.379794 
z
" clip-path="url(#p113ddae0ca)" style="fill: #5fd6e8; opacity: 0.9"/>
   </g>
   <g id="patch_5">
    <path d="M 68.769334 164.840698 
L 74.833842 164.840698 
L 74.833842 177.049816 
L 68.769334 177.049816 
z
" clip-path="url(#p113ddae0ca)" style="fill: #5fd6e8; opacity: 0.9"/>
   </g>
   <g id="patch_6">
    <path d="M 76.349969 164.840698 
L 82.414477 164.840698 
L 82.414477 171.675887 
L 76.349969 171.675887 
z
" clip-path="url(#p113ddae0ca)" style="fill: #5fd6e8; opacity: 0.9"/>
   </g>
   <g id="patch_7">
    <path d="M 83.930604 164.840698 
L 89.995112 164.840698 
L 89.995112 160.855521 
L 83.930604 160.855521 
z
" clip-path="url(#p113ddae0ca)" style="fill: #5fd6e8; opacity: 0.9"/>
   </g>
   <g id="patch_8">
    <path d="M 91.511239 164.840698 
L 97.575747 164.840698 
L 97.575747 156.967281 
L 91.511239 156.967281 
z
" clip-path="url(#p113ddae0ca)" style="fill: #5fd6e8; opacity: 0.9"/>
   </g>
   <g id="patch_9">
    <path d="M 99.091874 164.840698 
L 105.156382 164.840698 
L 105.156382 164.843649 
L 99.091874 164.843649 
z
" clip-path="url(#p113ddae0ca)" style="fill: #5fd6e8; opacity: 0.9"/>
   </g>
   <g id="patch_10">
    <path d="M 106.672509 164.840698 
L 112.737017 164.840698 
L 112.737017 174.661464 
L 106.672509 174.661464 
z
" clip-path="url(#p113ddae0ca)" style="fill: #5fd6e8; opacity: 0.9"/>
   </g>
   <g id="patch_11">
    <path d="M 114.253144 164.840698 
L 120.317652 164.840698 
L 120.317652 164.818036 
L 114.253144 164.818036 
z
" clip-path="url(#p113ddae0ca)" style="fill: #5fd6e8; opacity: 0.9"/>
   </g>
   <g id="patch_12">
    <path d="M 121.833779 164.840698 
L 127.898287 164.840698 
L 127.898287 175.827268 
L 121.833779 175.827268 
z
" clip-path="url(#p113ddae0ca)" style="fill: #5fd6e8; opacity: 0.9"/>
   </g>
   <g id="patch_13">
    <path d="M 129.414414 164.840698 
L 135.478922 164.840698 
L 135.478922 165.962139 
L 129.414414 165.962139 
z
" clip-path="url(#p113ddae0ca)" style="fill: #5fd6e8; opacity: 0.9"/>
   </g>
   <g id="patch_14">
    <path d="M 136.995049 164.840698 
L 143.059557 164.840698 
L 143.059557 197.84284 
L 136.995049 197.84284 
z
" clip-path="url(#p113ddae0ca)" style="fill: #5fd6e8; opacity: 0.9"/>
   </g>
   <g id="patch_15">
    <path d="M 144.575684 164.840698 
L 150.640192 164.840698 
L 150.640192 176.376668 
L 144.575684 176.376668 
z
" clip-path="url(#p113ddae0ca)" style="fill: #5fd6e8; opacity: 0.9"/>
   </g>
   <g id="patch_16">
    <path d="M 152.156319 164.840698 
L 158.220827 164.840698 
L 158.220827 155.956968 
L 152.156319 155.956968 
z
" clip-path="url(#p113ddae0ca)" style="fill: #5fd6e8; opacity: 0.9"/>
   </g>
   <g id="patch_17">
    <path d="M 159.736953 164.840698 
L 165.801462 164.840698 
L 165.801462 137.808407 
L 159.736953 137.808407 
z
" clip-path="url(#p113ddae0ca)" style="fill: #5fd6e8; opacity: 0.9"/>
   </g>
   <g id="patch_18">
    <path d="M 167.317588 164.840698 
L 173.382096 164.840698 
L 173.382096 151.06922 
L 167.317588 151.06922 
z
" clip-path="url(#p113ddae0ca)" style="fill: #5fd6e8; opacity: 0.9"/>
   </g>
   <g id="patch_19">
    <path d="M 174.898224 164.840698 
L 180.962732 164.840698 
L 180.962732 164.494341 
L 174.898224 164.494341 
z
" clip-path="url(#p113ddae0ca)" style="fill: #5fd6e8; opacity: 0.9"/>
   </g>
   <g id="patch_20">
    <path d="M 182.478859 164.840698 
L 188.543367 164.840698 
L 188.543367 167.47977 
L 182.478859 167.47977 
z
" clip-path="url(#p113ddae0ca)" style="fill: #5fd6e8; opacity: 0.9"/>
   </g>
   <g id="patch_21">
    <path d="M 190.059494 164.840698 
L 196.124002 164.840698 
L 196.124002 170.451073 
L 190.059494 170.451073 
z
" clip-path="url(#p113ddae0ca)" style="fill: #5fd6e8; opacity: 0.9"/>
   </g>
   <g id="patch_22">
    <path d="M 197.640129 164.840698 
L 203.704637 164.840698 
L 203.704637 163.051771 
L 197.640129 163.051771 
z
" clip-path="url(#p113ddae0ca)" style="fill: #5fd6e8; opacity: 0.9"/>
   </g>
   <g id="patch_23">
    <path d="M 205.220764 164.840698 
L 211.285272 164.840698 
L 211.285272 142.682857 
L 205.220764 142.682857 
z
" clip-path="url(#p113ddae0ca)" style="fill: #5fd6e8; opacity: 0.9"/>
   </g>
   <g id="patch_24">
    <path d="M 212.801399 164.840698 
L 218.865907 164.840698 
L 218.865907 148.910382 
L 212.801399 148.910382 
z
" clip-path="url(#p113ddae0ca)" style="fill: #5fd6e8; opacity: 0.9"/>
   </g>
   <g id="patch_25">
    <path d="M 220.382034 164.840698 
L 226.446542 164.840698 
L 226.446542 159.369564 
L 220.382034 159.369564 
z
" clip-path="url(#p113ddae0ca)" style="fill: #5fd6e8; opacity: 0.9"/>
   </g>
   <g id="patch_26">
    <path d="M 227.962669 164.840698 
L 234.027177 164.840698 
L 234.027177 165.917809 
L 227.962669 165.917809 
z
" clip-path="url(#p113ddae0ca)" style="fill: #5fd6e8; opacity: 0.9"/>
   </g>
   <g id="patch_27">
    <path d="M 235.543304 164.840698 
L 241.607812 164.840698 
L 241.607812 161.574061 
L 235.543304 161.574061 
z
" clip-path="url(#p113ddae0ca)" style="fill: #5fd6e8; opacity: 0.9"/>
   </g>
   <g id="patch_28">
    <path d="M 243.123939 164.840698 
L 249.188447 164.840698 
L 249.188447 182.190663 
L 243.123939 182.190663 
z
" clip-path="url(#p113ddae0ca)" style="fill: #5fd6e8; opacity: 0.9"/>
   </g>
   <g id="patch_29">
    <path d="M 250.704574 164.840698 
L 256.769082 164.840698 
L 256.769082 161.736093 
L 250.704574 161.736093 
z
" clip-path="url(#p113ddae0ca)" style="fill: #5fd6e8; opacity: 0.9"/>
   </g>
   <g id="patch_30">
    <path d="M 258.285209 164.840698 
L 264.349716 164.840698 
L 264.349716 167.447386 
L 258.285209 167.447386 
z
" clip-path="url(#p113ddae0ca)" style="fill: #5fd6e8; opacity: 0.9"/>
   </g>
   <g id="patch_31">
    <path d="M 265.865844 164.840698 
L 271.930352 164.840698 
L 271.930352 157.522408 
L 265.865844 157.522408 
z
" clip-path="url(#p113ddae0ca)" style="fill: #5fd6e8; opacity: 0.9"/>
   </g>
   <g id="patch_32">
    <path d="M 273.446479 164.840698 
L 279.510987 164.840698 
L 279.510987 197.166466 
L 273.446479 197.166466 
z
" clip-path="url(#p113ddae0ca)" style="fill: #5fd6e8; opacity: 0.9"/>
   </g>
   <g id="patch_33">
    <path d="M 281.027114 164.840698 
L 287.091622 164.840698 
L 287.091622 156.594488 
L 281.027114 156.594488 
z
" clip-path="url(#p113ddae0ca)" style="fill: #5fd6e8; opacity: 0.9"/>
   </g>
   <g id="patch_34">
    <path d="M 288.607749 164.840698 
L 294.672257 164.840698 
L 294.672257 153.762712 
L 288.607749 153.762712 
z
" clip-path="url(#p113ddae0ca)" style="fill: #5fd6e8; opacity: 0.9"/>
   </g>
   <g id="patch_35">
    <path d="M 296.188384 164.840698 
L 302.252892 164.840698 
L 302.252892 147.537025 
L 296.188384 147.537025 
z
" clip-path="url(#p113ddae0ca)" style="fill: #5fd6e8; opacity: 0.9"/>
   </g>
   <g id="patch_36">
    <path d="M 303.769019 164.840698 
L 309.833527 164.840698 
L 309.833527 169.885643 
L 303.769019 169.885643 
z
" clip-path="url(#p113ddae0ca)" style="fill: #5fd6e8; opacity: 0.9"/>
   </g>
   <g id="patch_37">
    <path d="M 311.349654 164.840698 
L 317.414162 164.840698 
L 317.414162 163.965391 
L 311.349654 163.965391 
z
" clip-path="url(#p113ddae0ca)" style="fill: #5fd6e8; opacity: 0.9"/>
   </g>
   <g id="patch_38">
    <path d="M 318.930289 164.840698 
L 324.994797 164.840698 
L 324.994797 156.548406 
L 318.930289 156.548406 
z
" clip-path="url(#p113ddae0ca)" style="fill: #5fd6e8; opacity: 0.9"/>
   </g>
   <g id="patch_39">
    <path d="M 326.510924 164.840698 
L 332.575432 164.840698 
L 332.575432 171.137834 
L 326.510924 171.137834 
z
" clip-path="url(#p113ddae0ca)" style="fill: #5fd6e8; opacity: 0.9"/>
   </g>
   <g id="patch_40">
    <path d="M 334.091559 164.840698 
L 340.156067 164.840698 
L 340.156067 157.065149 
L 334.091559 157.065149 
z
" clip-path="url(#p113ddae0ca)" style="fill: #5fd6e8; opacity: 0.9"/>
   </g>
   <g id="patch_41">
    <path d="M 341.672193 164.840698 
L 347.736701 164.840698 
L 347.736701 170.975975 
L 341.672193 170.975975 
z
" clip-path="url(#p113ddae0ca)" style="fill: #5fd6e8; opacity: 0.9"/>
   </g>
   <g id="patch_42">
    <path d="M 349.252829 164.840698 
L 355.317337 164.840698 
L 355.317337 164.537162 
L 349.252829 164.537162 
z
" clip-path="url(#p113ddae0ca)" style="fill: #5fd6e8; opacity: 0.9"/>
   </g>
   <g id="patch_43">
    <path d="M 356.833463 164.840698 
L 362.897971 164.840698 
L 362.897971 172.416112 
L 356.833463 172.416112 
z
" clip-path="url(#p113ddae0ca)" style="fill: #5fd6e8; opacity: 0.9"/>
   </g>
   <g id="patch_44">
    <path d="M 364.414099 164.840698 
L 370.478607 164.840698 
L 370.478607 167.657529 
L 364.414099 167.657529 
z
" clip-path="url(#p113ddae0ca)" style="fill: #5fd6e8; opacity: 0.9"/>
   </g>
   <g id="patch_45">
    <path d="M 371.994733 164.840698 
L 378.059241 164.840698 
L 378.059241 172.775764 
L 371.994733 172.775764 
z
" clip-path="url(#p113ddae0ca)" style="fill: #5fd6e8; opacity: 0.9"/>
   </g>
   <g id="patch_46">
    <path d="M 379.575369 164.840698 
L 385.639877 164.840698 
L 385.639877 164.624543 
L 379.575369 164.624543 
z
" clip-path="url(#p113ddae0ca)" style="fill: #5fd6e8; opacity: 0.9"/>
   </g>
   <g id="patch_47">
    <path d="M 387.156003 164.840698 
L 393.220511 164.840698 
L 393.220511 187.787046 
L 387.156003 187.787046 
z
" clip-path="url(#p113ddae0ca)" style="fill: #5fd6e8; opacity: 0.9"/>
   </g>
   <g id="patch_48">
    <path d="M 394.736639 164.840698 
L 400.801147 164.840698 
L 400.801147 165.374788 
L 394.736639 165.374788 
z
" clip-path="url(#p113ddae0ca)" style="fill: #5fd6e8; opacity: 0.9"/>
   </g>
   <g id="patch_49">
    <path d="M 402.317273 164.840698 
L 408.381781 164.840698 
L 408.381781 167.480731 
L 402.317273 167.480731 
z
" clip-path="url(#p113ddae0ca)" style="fill: #5fd6e8; opacity: 0.9"/>
   </g>
   <g id="patch_50">
    <path d="M 409.897909 164.840698 
L 415.962417 164.840698 
L 415.962417 150.200451 
L 409.897909 150.200451 
z
" clip-path="url(#p113ddae0ca)" style="fill: #5fd6e8; opacity: 0.9"/>
   </g>
   <g id="patch_51">
    <path d="M 417.478544 164.840698 
L 423.543051 164.840698 
L 423.543051 168.748525 
L 417.478544 168.748525 
z
" clip-path="url(#p113ddae0ca)" style="fill: #5fd6e8; opacity: 0.9"/>
   </g>
   <g id="patch_52">
    <path d="M 425.059179 164.840698 
L 431.123687 164.840698 
L 431.123687 148.919212 
L 425.059179 148.919212 
z
" clip-path="url(#p113ddae0ca)" style="fill: #5fd6e8; opacity: 0.9"/>
   </g>
   <g id="patch_53">
    <path d="M 432.639814 164.840698 
L 438.704321 164.840698 
L 438.704321 181.435515 
L 432.639814 181.435515 
z
" clip-path="url(#p113ddae0ca)" style="fill: #5fd6e8; opacity: 0.9"/>
   </g>
   <g id="patch_54">
    <path d="M 440.220449 164.840698 
L 446.284957 164.840698 
L 446.284957 155.722402 
L 440.220449 155.722402 
z
" clip-path="url(#p113ddae0ca)" style="fill: #5fd6e8; opacity: 0.9"/>
   </g>
   <g id="patch_55">
    <path d="M 447.801084 164.840698 
L 453.865591 164.840698 
L 453.865591 161.254962 
L 447.801084 161.254962 
z
" clip-path="url(#p113ddae0ca)" style="fill: #5fd6e8; opacity: 0.9"/>
   </g>
   <g id="patch_56">
    <path d="M 455.381719 164.840698 
L 461.446227 164.840698 
L 461.446227 142.955461 
L 455.381719 142.955461 
z
" clip-path="url(#p113ddae0ca)" style="fill: #5fd6e8; opacity: 0.9"/>
   </g>
   <g id="patch_57">
    <path d="M 462.962354 164.840698 
L 469.026861 164.840698 
L 469.026861 179.278462 
L 462.962354 179.278462 
z
" clip-path="url(#p113ddae0ca)" style="fill: #5fd6e8; opacity: 0.9"/>
   </g>
   <g id="patch_58">
    <path d="M 470.542989 164.840698 
L 476.607497 164.840698 
L 476.607497 163.309521 
L 470.542989 163.309521 
z
" clip-path="url(#p113ddae0ca)" style="fill: #5fd6e8; opacity: 0.9"/>
   </g>
   <g id="patch_59">
    <path d="M 478.123624 164.840698 
L 484.188131 164.840698 
L 484.188131 177.550051 
L 478.123624 177.550051 
z
" clip-path="url(#p113ddae0ca)" style="fill: #5fd6e8; opacity: 0.9"/>
   </g>
   <g id="patch_60">
    <path d="M 485.704259 164.840698 
L 491.768767 164.840698 
L 491.768767 170.558362 
L 485.704259 170.558362 
z
" clip-path="url(#p113ddae0ca)" style="fill: #5fd6e8; opacity: 0.9"/>
   </g>
   <g id="patch_61">
    <path d="M 493.284894 164.840698 
L 499.349401 164.840698 
L 499.349401 166.038039 
L 493.284894 166.038039 
z
" clip-path="url(#p113ddae0ca)" style="fill: #5fd6e8; opacity: 0.9"/>
   </g>
   <g id="patch_62">
    <path d="M 500.865529 164.840698 
L 506.930037 164.840698 
L 506.930037 174.376539 
L 500.865529 174.376539 
z
" clip-path="url(#p113ddae0ca)" style="fill: #5fd6e8; opacity: 0.9"/>
   </g>
   <g id="patch_63">
    <path d="M 508.446164 164.840698 
L 514.510671 164.840698 
L 514.510671 163.385972 
L 508.446164 163.385972 
z
" clip-path="url(#p113ddae0ca)" style="fill: #5fd6e8; opacity: 0.9"/>
   </g>
   <g id="patch_64">
    <path d="M 516.026799 164.840698 
L 522.091306 164.840698 
L 522.091306 181.425271 
L 516.026799 181.425271 
z
" clip-path="url(#p113ddae0ca)" style="fill: #5fd6e8; opacity: 0.9"/>
   </g>
   <g id="patch_65">
    <path d="M 523.607434 164.840698 
L 529.671942 164.840698 
L 529.671942 181.524797 
L 523.607434 181.524797 
z
" clip-path="url(#p113ddae0ca)" style="fill: #5fd6e8; opacity: 0.9"/>
   </g>
   <g id="patch_66">
    <path d="M 531.188069 164.840698 
L 537.252577 164.840698 
L 537.252577 170.707712 
L 531.188069 170.707712 
z
" clip-path="url(#p113ddae0ca)" style="fill: #5fd6e8; opacity: 0.9"/>
   </g>
   <g id="patch_67">
    <path d="M 538.768704 164.840698 
L 544.833211 164.840698 
L 544.833211 166.775085 
L 538.768704 166.775085 
z
" clip-path="url(#p113ddae0ca)" style="fill: #5fd6e8; opacity: 0.9"/>
   </g>
   <g id="patch_68">
    <path d="M 546.349339 164.840698 
L 552.413846 164.840698 
L 552.413846 162.707181 
L 546.349339 162.707181 
z
" clip-path="url(#p113ddae0ca)" style="fill: #5fd6e8; opacity: 0.9"/>
   </g>
   <g id="patch_69">
    <path d="M 553.929973 164.840698 
L 559.994481 164.840698 
L 559.994481 127.266806 
L 553.929973 127.266806 
z
" clip-path="url(#p113ddae0ca)" style="fill: #5fd6e8; opacity: 0.9"/>
   </g>
   <g id="patch_70">
    <path d="M 561.510608 164.840698 
L 567.575116 164.840698 
L 567.575116 162.833449 
L 561.510608 162.833449 
z
" clip-path="url(#p113ddae0ca)" style="fill: #5fd6e8; opacity: 0.9"/>
   </g>
   <g id="patch_71">
    <path d="M 569.091244 164.840698 
L 575.155751 164.840698 
L 575.155751 173.318836 
L 569.091244 173.318836 
z
" clip-path="url(#p113ddae0ca)" style="fill: #5fd6e8; opacity: 0.9"/>
   </g>
   <g id="patch_72">
    <path d="M 576.671878 164.840698 
L 582.736386 164.840698 
L 582.736386 188.884499 
L 576.671878 188.884499 
z
" clip-path="url(#p113ddae0ca)" style="fill: #5fd6e8; opacity: 0.9"/>
   </g>
   <g id="patch_73">
    <path d="M 584.252513 164.840698 
L 590.317021 164.840698 
L 590.317021 186.659506 
L 584.252513 186.659506 
z
" clip-path="url(#p113ddae0ca)" style="fill: #5fd6e8; opacity: 0.9"/>
   </g>
   <g id="patch_74">
    <path d="M 591.833148 164.840698 
L 597.897656 164.840698 
L 597.897656 148.094333 
L 591.833148 148.094333 
z
" clip-path="url(#p113ddae0ca)" style="fill: #5fd6e8; opacity: 0.9"/>
   </g>
   <g id="patch_75">
    <path d="M 599.413784 164.840698 
L 605.478291 164.840698 
L 605.478291 184.081168 
L 599.413784 184.081168 
z
" clip-path="url(#p113ddae0ca)" style="fill: #5fd6e8; opacity: 0.9"/>
   </g>
   <g id="patch_76">
    <path d="M 606.994418 164.840698 
L 613.058926 164.840698 
L 613.058926 172.625443 
L 606.994418 172.625443 
z
" clip-path="url(#p113ddae0ca)" style="fill: #5fd6e8; opacity: 0.9"/>
   </g>
   <g id="patch_77">
    <path d="M 614.575053 164.840698 
L 620.639561 164.840698 
L 620.639561 180.380253 
L 614.575053 180.380253 
z
" clip-path="url(#p113ddae0ca)" style="fill: #5fd6e8; opacity: 0.9"/>
   </g>
   <g id="patch_78">
    <path d="M 622.155688 164.840698 
L 628.220196 164.840698 
L 628.220196 163.791043 
L 622.155688 163.791043 
z
" clip-path="url(#p113ddae0ca)" style="fill: #5fd6e8; opacity: 0.9"/>
   </g>
   <g id="patch_79">
    <path d="M 629.736323 164.840698 
L 635.800831 164.840698 
L 635.800831 175.385105 
L 629.736323 175.385105 
z
" clip-path="url(#p113ddae0ca)" style="fill: #5fd6e8; opacity: 0.9"/>
   </g>
   <g id="patch_80">
    <path d="M 637.316958 164.840698 
L 643.381466 164.840698 
L 643.381466 146.95338 
L 637.316958 146.95338 
z
" clip-path="url(#p113ddae0ca)" style="fill: #5fd6e8; opacity: 0.9"/>
   </g>
   <g id="patch_81">
    <path d="M 644.897593 164.840698 
L 650.962101 164.840698 
L 650.962101 140.296076 
L 644.897593 140.296076 
z
" clip-path="url(#p113ddae0ca)" style="fill: #5fd6e8; opacity: 0.9"/>
   </g>
   <g id="patch_82">
    <path d="M 652.478229 164.840698 
L 658.542736 164.840698 
L 658.542736 165.741164 
L 652.478229 165.741164 
z
" clip-path="url(#p113ddae0ca)" style="fill: #5fd6e8; opacity: 0.9"/>
   </g>
   <g id="patch_83">
    <path d="M 660.058863 164.840698 
L 666.123371 164.840698 
L 666.123371 158.637149 
L 660.058863 158.637149 
z
" clip-path="url(#p113ddae0ca)" style="fill: #5fd6e8; opacity: 0.9"/>
   </g>
   <g id="patch_84">
    <path d="M 667.639498 164.840698 
L 673.704006 164.840698 
L 673.704006 166.644396 
L 667.639498 166.644396 
z
" clip-path="url(#p113ddae0ca)" style="fill: #5fd6e8; opacity: 0.9"/>
   </g>
   <g id="patch_85">
    <path d="M 675.220133 164.840698 
L 681.284641 164.840698 
L 681.284641 166.991446 
L 675.220133 166.991446 
z
" clip-path="url(#p113ddae0ca)" style="fill: #5fd6e8; opacity: 0.9"/>
   </g>
   <g id="patch_86">
    <path d="M 682.800769 164.840698 
L 688.865276 164.840698 
L 688.865276 158.853874 
L 682.800769 158.853874 
z
" clip-path="url(#p113ddae0ca)" style="fill: #5fd6e8; opacity: 0.9"/>
   </g>
   <g id="patch_87">
    <path d="M 690.381403 164.840698 
L 696.445911 164.840698 
L 696.445911 158.206338 
L 690.381403 158.206338 
z
" clip-path="url(#p113ddae0ca)" style="fill: #5fd6e8; opacity: 0.9"/>
   </g>
   <g id="patch_88">
    <path d="M 697.962038 164.840698 
L 704.026546 164.840698 
L 704.026546 147.088656 
L 697.962038 147.088656 
z
" clip-path="url(#p113ddae0ca)" style="fill: #5fd6e8; opacity: 0.9"/>
   </g>
   <g id="patch_89">
    <path d="M 705.542673 164.840698 
L 711.607181 164.840698 
L 711.607181 174.474002 
L 705.542673 174.474002 
z
" clip-path="url(#p113ddae0ca)" style="fill: #5fd6e8; opacity: 0.9"/>
   </g>
   <g id="patch_90">
    <path d="M 713.123309 164.840698 
L 719.187816 164.840698 
L 719.187816 166.521757 
L 713.123309 166.521757 
z
" clip-path="url(#p113ddae0ca)" style="fill: #5fd6e8; opacity: 0.9"/>
   </g>
   <g id="patch_91">
    <path d="M 720.703943 164.840698 
L 726.768451 164.840698 
L 726.768451 174.589194 
L 720.703943 174.589194 
z
" clip-path="url(#p113ddae0ca)" style="fill: #5fd6e8; opacity: 0.9"/>
   </g>
   <g id="patch_92">
    <path d="M 728.284578 164.840698 
L 734.349086 164.840698 
L 734.349086 171.233593 
L 728.284578 171.233593 
z
" clip-path="url(#p113ddae0ca)" style="fill: #5fd6e8; opacity: 0.9"/>
   </g>
   <g id="patch_93">
    <path d="M 735.865213 164.840698 
L 741.929721 164.840698 
L 741.929721 173.5344 
L 735.865213 173.5344 
z
" clip-path="url(#p113ddae0ca)" style="fill: #5fd6e8; opacity: 0.9"/>
   </g>
   <g id="patch_94">
    <path d="M 743.445849 164.840698 
L 749.510356 164.840698 
L 749.510356 157.164242 
L 743.445849 157.164242 
z
" clip-path="url(#p113ddae0ca)" style="fill: #5fd6e8; opacity: 0.9"/>
   </g>
   <g id="patch_95">
    <path d="M 751.026483 164.840698 
L 757.090991 164.840698 
L 757.090991 194.370967 
L 751.026483 194.370967 
z
" clip-path="url(#p113ddae0ca)" style="fill: #5fd6e8; opacity: 0.9"/>
   </g>
   <g id="patch_96">
    <path d="M 758.607118 164.840698 
L 764.671626 164.840698 
L 764.671626 158.679732 
L 758.607118 158.679732 
z
" clip-path="url(#p113ddae0ca)" style="fill: #5fd6e8; opacity: 0.9"/>
   </g>
   <g id="patch_97">
    <path d="M 766.187753 164.840698 
L 772.252261 164.840698 
L 772.252261 181.215616 
L 766.187753 181.215616 
z
" clip-path="url(#p113ddae0ca)" style="fill: #5fd6e8; opacity: 0.9"/>
   </g>
   <g id="patch_98">
    <path d="M 773.768389 164.840698 
L 779.832896 164.840698 
L 779.832896 171.072912 
L 773.768389 171.072912 
z
" clip-path="url(#p113ddae0ca)" style="fill: #5fd6e8; opacity: 0.9"/>
   </g>
   <g id="patch_99">
    <path d="M 781.349023 164.840698 
L 787.413531 164.840698 
L 787.413531 162.489427 
L 781.349023 162.489427 
z
" clip-path="url(#p113ddae0ca)" style="fill: #5fd6e8; opacity: 0.9"/>
   </g>
   <g id="patch_100">
    <path d="M 788.929658 164.840698 
L 794.994166 164.840698 
L 794.994166 153.3829 
L 788.929658 153.3829 
z
" clip-path="url(#p113ddae0ca)" style="fill: #5fd6e8; opacity: 0.9"/>
   </g>
   <g id="patch_101">
    <path d="M 796.510293 164.840698 
L 802.574801 164.840698 
L 802.574801 160.981533 
L 796.510293 160.981533 
z
" clip-path="url(#p113ddae0ca)" style="fill: #5fd6e8; opacity: 0.9"/>
   </g>
   <g id="patch_102">
    <path d="M 804.090929 164.840698 
L 810.155436 164.840698 
L 810.155436 165.807203 
L 804.090929 165.807203 
z
" clip-path="url(#p113ddae0ca)" style="fill: #5fd6e8; opacity: 0.9"/>
   </g>
   <g id="matplotlib.axis_1">
    <g id="xtick_1">
     <g id="line2d_1">
      <defs>
       <path id="m538b770e10" d="M 0 0 
L 0 3.5 
" style="stroke: #000000; stroke-width: 0.8"/>
      </defs>
      <g>
       <use xlink:href="#m538b770e10" x="200.672382" y="202.84" style="stroke: #000000; stroke-width: 0.8"/>
      </g>
     </g>
     <g id="text_1">
      <!-- 20 -->
      <g transform="translate(194.309882 217.438437)scale(0.1 -0.1)">
       <defs>
        <path id="DejaVuSans-32" d="M 1228 531 
L 3431 531 
L 3431 0 
L 469 0 
L 469 531 
Q 828 903 1448 1529 
Q 2069 2156 2228 2338 
Q 2531 2678 2651 2914 
Q 2772 3150 2772 3378 
Q 2772 3750 2511 3984 
Q 2250 4219 1831 4219 
Q 1534 4219 1204 4116 
Q 875 4013 500 3803 
L 500 4441 
Q 881 4594 1212 4672 
Q 1544 4750 1819 4750 
Q 2544 4750 2975 4387 
Q 3406 4025 3406 3419 
Q 3406 3131 3298 2873 
Q 3191 2616 2906 2266 
Q 2828 2175 2409 1742 
Q 1991 1309 1228 531 
z
" transform="scale(0.015625)"/>
        <path id="DejaVuSans-30" d="M 2034 4250 
Q 1547 4250 1301 3770 
Q 1056 3291 1056 2328 
Q 1056 1369 1301 889 
Q 1547 409 2034 409 
Q 2525 409 2770 889 
Q 3016 1369 3016 2328 
Q 3016 3291 2770 3770 
Q 2525 4250 2034 4250 
z
M 2034 4750 
Q 2819 4750 3233 4129 
Q 3647 3509 3647 2328 
Q 3647 1150 3233 529 
Q 2819 -91 2034 -91 
Q 1250 -91 836 529 
Q 422 1150 422 2328 
Q 422 3509 836 4129 
Q 1250 4750 2034 4750 
z
" transform="scale(0.015625)"/>
       </defs>
       <use xlink:href="#DejaVuSans-32"/>
       <use xlink:href="#DejaVuSans-30" x="63.623047"/>
      </g>
     </g>
    </g>
    <g id="xtick_2">
     <g id="line2d_2">
      <g>
       <use xlink:href="#m538b770e10" x="352.285082" y="202.84" style="stroke: #000000; stroke-width: 0.8"/>
      </g>
     </g>
     <g id="text_2">
      <!-- 40 -->
      <g transform="translate(345.922582 217.438437)scale(0.1 -0.1)">
       <defs>
        <path id="DejaVuSans-34" d="M 2419 4116 
L 825 1625 
L 2419 1625 
L 2419 4116 
z
M 2253 4666 
L 3047 4666 
L 3047 1625 
L 3713 1625 
L 3713 1100 
L 3047 1100 
L 3047 0 
L 2419 0 
L 2419 1100 
L 313 1100 
L 313 1709 
L 2253 4666 
z
" transform="scale(0.015625)"/>
       </defs>
       <use xlink:href="#DejaVuSans-34"/>
       <use xlink:href="#DejaVuSans-30" x="63.623047"/>
      </g>
     </g>
    </g>
    <g id="xtick_3">
     <g id="line2d_3">
      <g>
       <use xlink:href="#m538b770e10" x="503.897783" y="202.84" style="stroke: #000000; stroke-width: 0.8"/>
      </g>
     </g>
     <g id="text_3">
      <!-- 60 -->
      <g transform="translate(497.535282 217.438437)scale(0.1 -0.1)">
       <defs>
        <path id="DejaVuSans-36" d="M 2113 2584 
Q 1688 2584 1439 2293 
Q 1191 2003 1191 1497 
Q 1191 994 1439 701 
Q 1688 409 2113 409 
Q 2538 409 2786 701 
Q 3034 994 3034 1497 
Q 3034 2003 2786 2293 
Q 2538 2584 2113 2584 
z
M 3366 4563 
L 3366 3988 
Q 3128 4100 2886 4159 
Q 2644 4219 2406 4219 
Q 1781 4219 1451 3797 
Q 1122 3375 1075 2522 
Q 1259 2794 1537 2939 
Q 1816 3084 2150 3084 
Q 2853 3084 3261 2657 
Q 3669 2231 3669 1497 
Q 3669 778 3244 343 
Q 2819 -91 2113 -91 
Q 1303 -91 875 529 
Q 447 1150 447 2328 
Q 447 3434 972 4092 
Q 1497 4750 2381 4750 
Q 2619 4750 2861 4703 
Q 3103 4656 3366 4563 
z
" transform="scale(0.015625)"/>
       </defs>
       <use xlink:href="#DejaVuSans-36"/>
       <use xlink:href="#DejaVuSans-30" x="63.623047"/>
      </g>
     </g>
    </g>
    <g id="xtick_4">
     <g id="line2d_4">
      <g>
       <use xlink:href="#m538b770e10" x="655.510482" y="202.84" style="stroke: #000000; stroke-width: 0.8"/>
      </g>
     </g>
     <g id="text_4">
      <!-- 80 -->
      <g transform="translate(649.147983 217.438437)scale(0.1 -0.1)">
       <defs>
        <path id="DejaVuSans-38" d="M 2034 2216 
Q 1584 2216 1326 1975 
Q 1069 1734 1069 1313 
Q 1069 891 1326 650 
Q 1584 409 2034 409 
Q 2484 409 2743 651 
Q 3003 894 3003 1313 
Q 3003 1734 2745 1975 
Q 2488 2216 2034 2216 
z
M 1403 2484 
Q 997 2584 770 2862 
Q 544 3141 544 3541 
Q 544 4100 942 4425 
Q 1341 4750 2034 4750 
Q 2731 4750 3128 4425 
Q 3525 4100 3525 3541 
Q 3525 3141 3298 2862 
Q 3072 2584 2669 2484 
Q 3125 2378 3379 2068 
Q 3634 1759 3634 1313 
Q 3634 634 3220 271 
Q 2806 -91 2034 -91 
Q 1263 -91 848 271 
Q 434 634 434 1313 
Q 434 1759 690 2068 
Q 947 2378 1403 2484 
z
M 1172 3481 
Q 1172 3119 1398 2916 
Q 1625 2713 2034 2713 
Q 2441 2713 2670 2916 
Q 2900 3119 2900 3481 
Q 2900 3844 2670 4047 
Q 2441 4250 2034 4250 
Q 1625 4250 1398 4047 
Q 1172 3844 1172 3481 
z
" transform="scale(0.015625)"/>
       </defs>
       <use xlink:href="#DejaVuSans-38"/>
       <use xlink:href="#DejaVuSans-30" x="63.623047"/>
      </g>
     </g>
    </g>
    <g id="xtick_5">
     <g id="line2d_5">
      <g>
       <use xlink:href="#m538b770e10" x="807.123182" y="202.84" style="stroke: #000000; stroke-width: 0.8"/>
      </g>
     </g>
     <g id="text_5">
      <!-- 100 -->
      <g transform="translate(797.579432 217.438437)scale(0.1 -0.1)">
       <defs>
        <path id="DejaVuSans-31" d="M 794 531 
L 1825 531 
L 1825 4091 
L 703 3866 
L 703 4441 
L 1819 4666 
L 2450 4666 
L 2450 531 
L 3481 531 
L 3481 0 
L 794 0 
L 794 531 
z
" transform="scale(0.015625)"/>
       </defs>
       <use xlink:href="#DejaVuSans-31"/>
       <use xlink:href="#DejaVuSans-30" x="63.623047"/>
       <use xlink:href="#DejaVuSans-30" x="127.246094"/>
      </g>
     </g>
    </g>
    <g id="text_6">
     <!-- Engine Id -->
     <g transform="translate(408.50675 231.116562)scale(0.1 -0.1)">
      <defs>
       <path id="DejaVuSans-45" d="M 628 4666 
L 3578 4666 
L 3578 4134 
L 1259 4134 
L 1259 2753 
L 3481 2753 
L 3481 2222 
L 1259 2222 
L 1259 531 
L 3634 531 
L 3634 0 
L 628 0 
L 628 4666 
z
" transform="scale(0.015625)"/>
       <path id="DejaVuSans-6e" d="M 3513 2113 
L 3513 0 
L 2938 0 
L 2938 2094 
Q 2938 2591 2744 2837 
Q 2550 3084 2163 3084 
Q 1697 3084 1428 2787 
Q 1159 2491 1159 1978 
L 1159 0 
L 581 0 
L 581 3500 
L 1159 3500 
L 1159 2956 
Q 1366 3272 1645 3428 
Q 1925 3584 2291 3584 
Q 2894 3584 3203 3211 
Q 3513 2838 3513 2113 
z
" transform="scale(0.015625)"/>
       <path id="DejaVuSans-67" d="M 2906 1791 
Q 2906 2416 2648 2759 
Q 2391 3103 1925 3103 
Q 1463 3103 1205 2759 
Q 947 2416 947 1791 
Q 947 1169 1205 825 
Q 1463 481 1925 481 
Q 2391 481 2648 825 
Q 2906 1169 2906 1791 
z
M 3481 434 
Q 3481 -459 3084 -895 
Q 2688 -1331 1869 -1331 
Q 1566 -1331 1297 -1286 
Q 1028 -1241 775 -1147 
L 775 -588 
Q 1028 -725 1275 -790 
Q 1522 -856 1778 -856 
Q 2344 -856 2625 -561 
Q 2906 -266 2906 331 
L 2906 616 
Q 2728 306 2450 153 
Q 2172 0 1784 0 
Q 1141 0 747 490 
Q 353 981 353 1791 
Q 353 2603 747 3093 
Q 1141 3584 1784 3584 
Q 2172 3584 2450 3431 
Q 2728 3278 2906 2969 
L 2906 3500 
L 3481 3500 
L 3481 434 
z
" transform="scale(0.015625)"/>
       <path id="DejaVuSans-69" d="M 603 3500 
L 1178 3500 
L 1178 0 
L 603 0 
L 603 3500 
z
M 603 4863 
L 1178 4863 
L 1178 4134 
L 603 4134 
L 603 4863 
z
" transform="scale(0.015625)"/>
       <path id="DejaVuSans-65" d="M 3597 1894 
L 3597 1613 
L 953 1613 
Q 991 1019 1311 708 
Q 1631 397 2203 397 
Q 2534 397 2845 478 
Q 3156 559 3463 722 
L 3463 178 
Q 3153 47 2828 -22 
Q 2503 -91 2169 -91 
Q 1331 -91 842 396 
Q 353 884 353 1716 
Q 353 2575 817 3079 
Q 1281 3584 2069 3584 
Q 2775 3584 3186 3129 
Q 3597 2675 3597 1894 
z
M 3022 2063 
Q 3016 2534 2758 2815 
Q 2500 3097 2075 3097 
Q 1594 3097 1305 2825 
Q 1016 2553 972 2059 
L 3022 2063 
z
" transform="scale(0.015625)"/>
       <path id="DejaVuSans-20" transform="scale(0.015625)"/>
       <path id="DejaVuSans-49" d="M 628 4666 
L 1259 4666 
L 1259 0 
L 628 0 
L 628 4666 
z
" transform="scale(0.015625)"/>
       <path id="DejaVuSans-64" d="M 2906 2969 
L 2906 4863 
L 3481 4863 
L 3481 0 
L 2906 0 
L 2906 525 
Q 2725 213 2448 61 
Q 2172 -91 1784 -91 
Q 1150 -91 751 415 
Q 353 922 353 1747 
Q 353 2572 751 3078 
Q 1150 3584 1784 3584 
Q 2172 3584 2448 3432 
Q 2725 3281 2906 2969 
z
M 947 1747 
Q 947 1113 1208 752 
Q 1469 391 1925 391 
Q 2381 391 2643 752 
Q 2906 1113 2906 1747 
Q 2906 2381 2643 2742 
Q 2381 3103 1925 3103 
Q 1469 3103 1208 2742 
Q 947 2381 947 1747 
z
" transform="scale(0.015625)"/>
      </defs>
      <use xlink:href="#DejaVuSans-45"/>
      <use xlink:href="#DejaVuSans-6e" x="63.183594"/>
      <use xlink:href="#DejaVuSans-67" x="126.5625"/>
      <use xlink:href="#DejaVuSans-69" x="190.039062"/>
      <use xlink:href="#DejaVuSans-6e" x="217.822266"/>
      <use xlink:href="#DejaVuSans-65" x="281.201172"/>
      <use xlink:href="#DejaVuSans-20" x="342.724609"/>
      <use xlink:href="#DejaVuSans-49" x="374.511719"/>
      <use xlink:href="#DejaVuSans-64" x="404.003906"/>
     </g>
    </g>
   </g>
   <g id="matplotlib.axis_2">
    <g id="ytick_1">
     <g id="line2d_6">
      <path d="M 52.85 189.826499 
L 810.9135 189.826499 
" clip-path="url(#p113ddae0ca)" style="fill: none; stroke: #b0b0b0; stroke-opacity: 0.25; stroke-width: 0.8; stroke-linecap: square"/>
     </g>
     <g id="line2d_7">
      <defs>
       <path id="m8b6b71ff54" d="M 0 0 
L -3.5 0 
" style="stroke: #000000; stroke-width: 0.8"/>
      </defs>
      <g>
       <use xlink:href="#m8b6b71ff54" x="52.85" y="189.826499" style="stroke: #000000; stroke-width: 0.8"/>
      </g>
     </g>
     <g id="text_7">
      <!-- −25 -->
      <g transform="translate(24.745313 193.625717)scale(0.1 -0.1)">
       <defs>
        <path id="DejaVuSans-2212" d="M 678 2272 
L 4684 2272 
L 4684 1741 
L 678 1741 
L 678 2272 
z
" transform="scale(0.015625)"/>
        <path id="DejaVuSans-35" d="M 691 4666 
L 3169 4666 
L 3169 4134 
L 1269 4134 
L 1269 2991 
Q 1406 3038 1543 3061 
Q 1681 3084 1819 3084 
Q 2600 3084 3056 2656 
Q 3513 2228 3513 1497 
Q 3513 744 3044 326 
Q 2575 -91 1722 -91 
Q 1428 -91 1123 -41 
Q 819 9 494 109 
L 494 744 
Q 775 591 1075 516 
Q 1375 441 1709 441 
Q 2250 441 2565 725 
Q 2881 1009 2881 1497 
Q 2881 1984 2565 2268 
Q 2250 2553 1709 2553 
Q 1456 2553 1204 2497 
Q 953 2441 691 2322 
L 691 4666 
z
" transform="scale(0.015625)"/>
       </defs>
       <use xlink:href="#DejaVuSans-2212"/>
       <use xlink:href="#DejaVuSans-32" x="83.789062"/>
       <use xlink:href="#DejaVuSans-35" x="147.412109"/>
      </g>
     </g>
    </g>
    <g id="ytick_2">
     <g id="line2d_8">
      <path d="M 52.85 164.840698 
L 810.9135 164.840698 
" clip-path="url(#p113ddae0ca)" style="fill: none; stroke: #b0b0b0; stroke-opacity: 0.25; stroke-width: 0.8; stroke-linecap: square"/>
     </g>
     <g id="line2d_9">
      <g>
       <use xlink:href="#m8b6b71ff54" x="52.85" y="164.840698" style="stroke: #000000; stroke-width: 0.8"/>
      </g>
     </g>
     <g id="text_8">
      <!-- 0 -->
      <g transform="translate(39.4875 168.639917)scale(0.1 -0.1)">
       <use xlink:href="#DejaVuSans-30"/>
      </g>
     </g>
    </g>
    <g id="ytick_3">
     <g id="line2d_10">
      <path d="M 52.85 139.854897 
L 810.9135 139.854897 
" clip-path="url(#p113ddae0ca)" style="fill: none; stroke: #b0b0b0; stroke-opacity: 0.25; stroke-width: 0.8; stroke-linecap: square"/>
     </g>
     <g id="line2d_11">
      <g>
       <use xlink:href="#m8b6b71ff54" x="52.85" y="139.854897" style="stroke: #000000; stroke-width: 0.8"/>
      </g>
     </g>
     <g id="text_9">
      <!-- 25 -->
      <g transform="translate(33.125 143.654116)scale(0.1 -0.1)">
       <use xlink:href="#DejaVuSans-32"/>
       <use xlink:href="#DejaVuSans-35" x="63.623047"/>
      </g>
     </g>
    </g>
    <g id="ytick_4">
     <g id="line2d_12">
      <path d="M 52.85 114.869097 
L 810.9135 114.869097 
" clip-path="url(#p113ddae0ca)" style="fill: none; stroke: #b0b0b0; stroke-opacity: 0.25; stroke-width: 0.8; stroke-linecap: square"/>
     </g>
     <g id="line2d_13">
      <g>
       <use xlink:href="#m8b6b71ff54" x="52.85" y="114.869097" style="stroke: #000000; stroke-width: 0.8"/>
      </g>
     </g>
     <g id="text_10">
      <!-- 50 -->
      <g transform="translate(33.125 118.668316)scale(0.1 -0.1)">
       <use xlink:href="#DejaVuSans-35"/>
       <use xlink:href="#DejaVuSans-30" x="63.623047"/>
      </g>
     </g>
    </g>
    <g id="ytick_5">
     <g id="line2d_14">
      <path d="M 52.85 89.883296 
L 810.9135 89.883296 
" clip-path="url(#p113ddae0ca)" style="fill: none; stroke: #b0b0b0; stroke-opacity: 0.25; stroke-width: 0.8; stroke-linecap: square"/>
     </g>
     <g id="line2d_15">
      <g>
       <use xlink:href="#m8b6b71ff54" x="52.85" y="89.883296" style="stroke: #000000; stroke-width: 0.8"/>
      </g>
     </g>
     <g id="text_11">
      <!-- 75 -->
      <g transform="translate(33.125 93.682515)scale(0.1 -0.1)">
       <defs>
        <path id="DejaVuSans-37" d="M 525 4666 
L 3525 4666 
L 3525 4397 
L 1831 0 
L 1172 0 
L 2766 4134 
L 525 4134 
L 525 4666 
z
" transform="scale(0.015625)"/>
       </defs>
       <use xlink:href="#DejaVuSans-37"/>
       <use xlink:href="#DejaVuSans-35" x="63.623047"/>
      </g>
     </g>
    </g>
    <g id="ytick_6">
     <g id="line2d_16">
      <path d="M 52.85 64.897496 
L 810.9135 64.897496 
" clip-path="url(#p113ddae0ca)" style="fill: none; stroke: #b0b0b0; stroke-opacity: 0.25; stroke-width: 0.8; stroke-linecap: square"/>
     </g>
     <g id="line2d_17">
      <g>
       <use xlink:href="#m8b6b71ff54" x="52.85" y="64.897496" style="stroke: #000000; stroke-width: 0.8"/>
      </g>
     </g>
     <g id="text_12">
      <!-- 100 -->
      <g transform="translate(26.7625 68.696715)scale(0.1 -0.1)">
       <use xlink:href="#DejaVuSans-31"/>
       <use xlink:href="#DejaVuSans-30" x="63.623047"/>
       <use xlink:href="#DejaVuSans-30" x="127.246094"/>
      </g>
     </g>
    </g>
    <g id="ytick_7">
     <g id="line2d_18">
      <path d="M 52.85 39.911695 
L 810.9135 39.911695 
" clip-path="url(#p113ddae0ca)" style="fill: none; stroke: #b0b0b0; stroke-opacity: 0.25; stroke-width: 0.8; stroke-linecap: square"/>
     </g>
     <g id="line2d_19">
      <g>
       <use xlink:href="#m8b6b71ff54" x="52.85" y="39.911695" style="stroke: #000000; stroke-width: 0.8"/>
      </g>
     </g>
     <g id="text_13">
      <!-- 125 -->
      <g transform="translate(26.7625 43.710914)scale(0.1 -0.1)">
       <use xlink:href="#DejaVuSans-31"/>
       <use xlink:href="#DejaVuSans-32" x="63.623047"/>
       <use xlink:href="#DejaVuSans-35" x="127.246094"/>
      </g>
     </g>
    </g>
    <g id="text_14">
     <!-- RUL(Cycle) -->
     <g transform="translate(18.665625 141.626719)rotate(-90)scale(0.1 -0.1)">
      <defs>
       <path id="DejaVuSans-52" d="M 2841 2188 
Q 3044 2119 3236 1894 
Q 3428 1669 3622 1275 
L 4263 0 
L 3584 0 
L 2988 1197 
Q 2756 1666 2539 1819 
Q 2322 1972 1947 1972 
L 1259 1972 
L 1259 0 
L 628 0 
L 628 4666 
L 2053 4666 
Q 2853 4666 3247 4331 
Q 3641 3997 3641 3322 
Q 3641 2881 3436 2590 
Q 3231 2300 2841 2188 
z
M 1259 4147 
L 1259 2491 
L 2053 2491 
Q 2509 2491 2742 2702 
Q 2975 2913 2975 3322 
Q 2975 3731 2742 3939 
Q 2509 4147 2053 4147 
L 1259 4147 
z
" transform="scale(0.015625)"/>
       <path id="DejaVuSans-55" d="M 556 4666 
L 1191 4666 
L 1191 1831 
Q 1191 1081 1462 751 
Q 1734 422 2344 422 
Q 2950 422 3222 751 
Q 3494 1081 3494 1831 
L 3494 4666 
L 4128 4666 
L 4128 1753 
Q 4128 841 3676 375 
Q 3225 -91 2344 -91 
Q 1459 -91 1007 375 
Q 556 841 556 1753 
L 556 4666 
z
" transform="scale(0.015625)"/>
       <path id="DejaVuSans-4c" d="M 628 4666 
L 1259 4666 
L 1259 531 
L 3531 531 
L 3531 0 
L 628 0 
L 628 4666 
z
" transform="scale(0.015625)"/>
       <path id="DejaVuSans-28" d="M 1984 4856 
Q 1566 4138 1362 3434 
Q 1159 2731 1159 2009 
Q 1159 1288 1364 580 
Q 1569 -128 1984 -844 
L 1484 -844 
Q 1016 -109 783 600 
Q 550 1309 550 2009 
Q 550 2706 781 3412 
Q 1013 4119 1484 4856 
L 1984 4856 
z
" transform="scale(0.015625)"/>
       <path id="DejaVuSans-43" d="M 4122 4306 
L 4122 3641 
Q 3803 3938 3442 4084 
Q 3081 4231 2675 4231 
Q 1875 4231 1450 3742 
Q 1025 3253 1025 2328 
Q 1025 1406 1450 917 
Q 1875 428 2675 428 
Q 3081 428 3442 575 
Q 3803 722 4122 1019 
L 4122 359 
Q 3791 134 3420 21 
Q 3050 -91 2638 -91 
Q 1578 -91 968 557 
Q 359 1206 359 2328 
Q 359 3453 968 4101 
Q 1578 4750 2638 4750 
Q 3056 4750 3426 4639 
Q 3797 4528 4122 4306 
z
" transform="scale(0.015625)"/>
       <path id="DejaVuSans-79" d="M 2059 -325 
Q 1816 -950 1584 -1140 
Q 1353 -1331 966 -1331 
L 506 -1331 
L 506 -850 
L 844 -850 
Q 1081 -850 1212 -737 
Q 1344 -625 1503 -206 
L 1606 56 
L 191 3500 
L 800 3500 
L 1894 763 
L 2988 3500 
L 3597 3500 
L 2059 -325 
z
" transform="scale(0.015625)"/>
       <path id="DejaVuSans-63" d="M 3122 3366 
L 3122 2828 
Q 2878 2963 2633 3030 
Q 2388 3097 2138 3097 
Q 1578 3097 1268 2742 
Q 959 2388 959 1747 
Q 959 1106 1268 751 
Q 1578 397 2138 397 
Q 2388 397 2633 464 
Q 2878 531 3122 666 
L 3122 134 
Q 2881 22 2623 -34 
Q 2366 -91 2075 -91 
Q 1284 -91 818 406 
Q 353 903 353 1747 
Q 353 2603 823 3093 
Q 1294 3584 2113 3584 
Q 2378 3584 2631 3529 
Q 2884 3475 3122 3366 
z
" transform="scale(0.015625)"/>
       <path id="DejaVuSans-6c" d="M 603 4863 
L 1178 4863 
L 1178 0 
L 603 0 
L 603 4863 
z
" transform="scale(0.015625)"/>
       <path id="DejaVuSans-29" d="M 513 4856 
L 1013 4856 
Q 1481 4119 1714 3412 
Q 1947 2706 1947 2009 
Q 1947 1309 1714 600 
Q 1481 -109 1013 -844 
L 513 -844 
Q 928 -128 1133 580 
Q 1338 1288 1338 2009 
Q 1338 2731 1133 3434 
Q 928 4138 513 4856 
z
" transform="scale(0.015625)"/>
      </defs>
      <use xlink:href="#DejaVuSans-52"/>
      <use xlink:href="#DejaVuSans-55" x="69.482422"/>
      <use xlink:href="#DejaVuSans-4c" x="142.675781"/>
      <use xlink:href="#DejaVuSans-28" x="198.388672"/>
      <use xlink:href="#DejaVuSans-43" x="237.402344"/>
      <use xlink:href="#DejaVuSans-79" x="307.226562"/>
      <use xlink:href="#DejaVuSans-63" x="366.40625"/>
      <use xlink:href="#DejaVuSans-6c" x="421.386719"/>
      <use xlink:href="#DejaVuSans-65" x="449.169922"/>
      <use xlink:href="#DejaVuSans-29" x="510.693359"/>
     </g>
    </g>
   </g>
   <g id="line2d_20">
    <path d="M 56.640318 52.904311 
L 64.220953 66.89636 
L 71.801588 95.879888 
L 79.382223 82.887272 
L 86.962858 73.892384 
L 94.543493 71.89352 
L 102.124128 73.892384 
L 109.704763 69.894656 
L 117.285398 53.903744 
L 124.866033 68.895224 
L 132.446668 67.895792 
L 140.027303 40.911127 
L 147.607938 69.894656 
L 155.188573 57.901472 
L 162.769208 81.88784 
L 170.349843 80.888408 
L 177.930477 114.869097 
L 185.511112 136.856601 
L 193.091747 77.890112 
L 200.672382 148.849786 
L 208.253017 107.873073 
L 215.833652 53.903744 
L 223.414288 51.904879 
L 230.994923 144.852058 
L 238.575558 39.911695 
L 246.156193 45.908287 
L 253.736828 98.878185 
L 261.317463 67.895792 
L 268.898098 74.891816 
L 276.478733 49.906015 
L 284.059368 156.845242 
L 291.640003 116.867961 
L 299.220638 58.900904 
L 306.801272 157.844674 
L 314.381908 153.846946 
L 321.962542 145.85149 
L 329.543178 143.852626 
L 337.123812 114.869097 
L 344.704448 39.911695 
L 352.285082 136.856601 
L 359.865718 146.850922 
L 367.446352 154.846378 
L 375.026988 105.874209 
L 382.607622 55.902608 
L 390.188258 50.905447 
L 397.768892 117.867393 
L 405.349528 39.911695 
L 412.930162 72.892952 
L 420.510798 143.852626 
L 428.091432 85.885568 
L 435.672068 50.905447 
L 443.252702 135.857169 
L 450.833338 138.855465 
L 458.413972 67.895792 
L 465.994608 39.911695 
L 473.575243 149.849218 
L 481.155878 61.8992 
L 488.736513 127.861713 
L 496.317148 50.905447 
L 503.897783 64.897496 
L 511.478418 143.852626 
L 519.059053 110.871369 
L 526.639688 92.881592 
L 534.220323 136.856601 
L 541.800957 39.911695 
L 549.381593 150.84865 
L 556.962228 87.884432 
L 564.542862 156.845242 
L 572.123497 43.909423 
L 579.704133 70.894088 
L 587.284768 46.907719 
L 594.865402 114.869097 
L 602.446037 39.911695 
L 610.026673 39.911695 
L 617.607308 51.904879 
L 625.187942 154.846378 
L 632.768577 130.860009 
L 640.349213 57.901472 
L 647.929848 101.876481 
L 655.510482 74.891816 
L 663.091117 156.845242 
L 670.671753 155.84581 
L 678.252388 39.911695 
L 685.833022 106.873641 
L 693.413657 46.907719 
L 700.994293 75.891248 
L 708.574928 48.906583 
L 716.155562 49.906015 
L 723.736198 39.911695 
L 731.316833 136.856601 
L 738.897468 126.862281 
L 746.478102 144.852058 
L 754.058738 79.888976 
L 761.639373 109.871937 
L 769.220008 39.911695 
L 776.800642 39.911695 
L 784.381278 82.887272 
L 791.961913 105.874209 
L 799.542547 47.907151 
L 807.123182 144.852058 
" clip-path="url(#p113ddae0ca)" style="fill: none; stroke-dasharray: 3.7,1.6; stroke-dashoffset: 0; stroke: #dc8a8a"/>
    <defs>
     <path id="mde29510a30" d="M -2 2 
L 2 2 
L 2 -2 
L -2 -2 
z
" style="stroke: #dc8a8a; stroke-linejoin: miter"/>
    </defs>
    <g clip-path="url(#p113ddae0ca)">
     <use xlink:href="#mde29510a30" x="56.640318" y="52.904311" style="fill-opacity: 0; stroke: #dc8a8a; stroke-linejoin: miter"/>
     <use xlink:href="#mde29510a30" x="64.220953" y="66.89636" style="fill-opacity: 0; stroke: #dc8a8a; stroke-linejoin: miter"/>
     <use xlink:href="#mde29510a30" x="71.801588" y="95.879888" style="fill-opacity: 0; stroke: #dc8a8a; stroke-linejoin: miter"/>
     <use xlink:href="#mde29510a30" x="79.382223" y="82.887272" style="fill-opacity: 0; stroke: #dc8a8a; stroke-linejoin: miter"/>
     <use xlink:href="#mde29510a30" x="86.962858" y="73.892384" style="fill-opacity: 0; stroke: #dc8a8a; stroke-linejoin: miter"/>
     <use xlink:href="#mde29510a30" x="94.543493" y="71.89352" style="fill-opacity: 0; stroke: #dc8a8a; stroke-linejoin: miter"/>
     <use xlink:href="#mde29510a30" x="102.124128" y="73.892384" style="fill-opacity: 0; stroke: #dc8a8a; stroke-linejoin: miter"/>
     <use xlink:href="#mde29510a30" x="109.704763" y="69.894656" style="fill-opacity: 0; stroke: #dc8a8a; stroke-linejoin: miter"/>
     <use xlink:href="#mde29510a30" x="117.285398" y="53.903744" style="fill-opacity: 0; stroke: #dc8a8a; stroke-linejoin: miter"/>
     <use xlink:href="#mde29510a30" x="124.866033" y="68.895224" style="fill-opacity: 0; stroke: #dc8a8a; stroke-linejoin: miter"/>
     <use xlink:href="#mde29510a30" x="132.446668" y="67.895792" style="fill-opacity: 0; stroke: #dc8a8a; stroke-linejoin: miter"/>
     <use xlink:href="#mde29510a30" x="140.027303" y="40.911127" style="fill-opacity: 0; stroke: #dc8a8a; stroke-linejoin: miter"/>
     <use xlink:href="#mde29510a30" x="147.607938" y="69.894656" style="fill-opacity: 0; stroke: #dc8a8a; stroke-linejoin: miter"/>
     <use xlink:href="#mde29510a30" x="155.188573" y="57.901472" style="fill-opacity: 0; stroke: #dc8a8a; stroke-linejoin: miter"/>
     <use xlink:href="#mde29510a30" x="162.769208" y="81.88784" style="fill-opacity: 0; stroke: #dc8a8a; stroke-linejoin: miter"/>
     <use xlink:href="#mde29510a30" x="170.349843" y="80.888408" style="fill-opacity: 0; stroke: #dc8a8a; stroke-linejoin: miter"/>
     <use xlink:href="#mde29510a30" x="177.930477" y="114.869097" style="fill-opacity: 0; stroke: #dc8a8a; stroke-linejoin: miter"/>
     <use xlink:href="#mde29510a30" x="185.511112" y="136.856601" style="fill-opacity: 0; stroke: #dc8a8a; stroke-linejoin: miter"/>
     <use xlink:href="#mde29510a30" x="193.091747" y="77.890112" style="fill-opacity: 0; stroke: #dc8a8a; stroke-linejoin: miter"/>
     <use xlink:href="#mde29510a30" x="200.672382" y="148.849786" style="fill-opacity: 0; stroke: #dc8a8a; stroke-linejoin: miter"/>
     <use xlink:href="#mde29510a30" x="208.253017" y="107.873073" style="fill-opacity: 0; stroke: #dc8a8a; stroke-linejoin: miter"/>
     <use xlink:href="#mde29510a30" x="215.833652" y="53.903744" style="fill-opacity: 0; stroke: #dc8a8a; stroke-linejoin: miter"/>
     <use xlink:href="#mde29510a30" x="223.414288" y="51.904879" style="fill-opacity: 0; stroke: #dc8a8a; stroke-linejoin: miter"/>
     <use xlink:href="#mde29510a30" x="230.994923" y="144.852058" style="fill-opacity: 0; stroke: #dc8a8a; stroke-linejoin: miter"/>
     <use xlink:href="#mde29510a30" x="238.575558" y="39.911695" style="fill-opacity: 0; stroke: #dc8a8a; stroke-linejoin: miter"/>
     <use xlink:href="#mde29510a30" x="246.156193" y="45.908287" style="fill-opacity: 0; stroke: #dc8a8a; stroke-linejoin: miter"/>
     <use xlink:href="#mde29510a30" x="253.736828" y="98.878185" style="fill-opacity: 0; stroke: #dc8a8a; stroke-linejoin: miter"/>
     <use xlink:href="#mde29510a30" x="261.317463" y="67.895792" style="fill-opacity: 0; stroke: #dc8a8a; stroke-linejoin: miter"/>
     <use xlink:href="#mde29510a30" x="268.898098" y="74.891816" style="fill-opacity: 0; stroke: #dc8a8a; stroke-linejoin: miter"/>
     <use xlink:href="#mde29510a30" x="276.478733" y="49.906015" style="fill-opacity: 0; stroke: #dc8a8a; stroke-linejoin: miter"/>
     <use xlink:href="#mde29510a30" x="284.059368" y="156.845242" style="fill-opacity: 0; stroke: #dc8a8a; stroke-linejoin: miter"/>
     <use xlink:href="#mde29510a30" x="291.640003" y="116.867961" style="fill-opacity: 0; stroke: #dc8a8a; stroke-linejoin: miter"/>
     <use xlink:href="#mde29510a30" x="299.220638" y="58.900904" style="fill-opacity: 0; stroke: #dc8a8a; stroke-linejoin: miter"/>
     <use xlink:href="#mde29510a30" x="306.801272" y="157.844674" style="fill-opacity: 0; stroke: #dc8a8a; stroke-linejoin: miter"/>
     <use xlink:href="#mde29510a30" x="314.381908" y="153.846946" style="fill-opacity: 0; stroke: #dc8a8a; stroke-linejoin: miter"/>
     <use xlink:href="#mde29510a30" x="321.962542" y="145.85149" style="fill-opacity: 0; stroke: #dc8a8a; stroke-linejoin: miter"/>
     <use xlink:href="#mde29510a30" x="329.543178" y="143.852626" style="fill-opacity: 0; stroke: #dc8a8a; stroke-linejoin: miter"/>
     <use xlink:href="#mde29510a30" x="337.123812" y="114.869097" style="fill-opacity: 0; stroke: #dc8a8a; stroke-linejoin: miter"/>
     <use xlink:href="#mde29510a30" x="344.704448" y="39.911695" style="fill-opacity: 0; stroke: #dc8a8a; stroke-linejoin: miter"/>
     <use xlink:href="#mde29510a30" x="352.285082" y="136.856601" style="fill-opacity: 0; stroke: #dc8a8a; stroke-linejoin: miter"/>
     <use xlink:href="#mde29510a30" x="359.865718" y="146.850922" style="fill-opacity: 0; stroke: #dc8a8a; stroke-linejoin: miter"/>
     <use xlink:href="#mde29510a30" x="367.446352" y="154.846378" style="fill-opacity: 0; stroke: #dc8a8a; stroke-linejoin: miter"/>
     <use xlink:href="#mde29510a30" x="375.026988" y="105.874209" style="fill-opacity: 0; stroke: #dc8a8a; stroke-linejoin: miter"/>
     <use xlink:href="#mde29510a30" x="382.607622" y="55.902608" style="fill-opacity: 0; stroke: #dc8a8a; stroke-linejoin: miter"/>
     <use xlink:href="#mde29510a30" x="390.188258" y="50.905447" style="fill-opacity: 0; stroke: #dc8a8a; stroke-linejoin: miter"/>
     <use xlink:href="#mde29510a30" x="397.768892" y="117.867393" style="fill-opacity: 0; stroke: #dc8a8a; stroke-linejoin: miter"/>
     <use xlink:href="#mde29510a30" x="405.349528" y="39.911695" style="fill-opacity: 0; stroke: #dc8a8a; stroke-linejoin: miter"/>
     <use xlink:href="#mde29510a30" x="412.930162" y="72.892952" style="fill-opacity: 0; stroke: #dc8a8a; stroke-linejoin: miter"/>
     <use xlink:href="#mde29510a30" x="420.510798" y="143.852626" style="fill-opacity: 0; stroke: #dc8a8a; stroke-linejoin: miter"/>
     <use xlink:href="#mde29510a30" x="428.091432" y="85.885568" style="fill-opacity: 0; stroke: #dc8a8a; stroke-linejoin: miter"/>
     <use xlink:href="#mde29510a30" x="435.672068" y="50.905447" style="fill-opacity: 0; stroke: #dc8a8a; stroke-linejoin: miter"/>
     <use xlink:href="#mde29510a30" x="443.252702" y="135.857169" style="fill-opacity: 0; stroke: #dc8a8a; stroke-linejoin: miter"/>
     <use xlink:href="#mde29510a30" x="450.833338" y="138.855465" style="fill-opacity: 0; stroke: #dc8a8a; stroke-linejoin: miter"/>
     <use xlink:href="#mde29510a30" x="458.413972" y="67.895792" style="fill-opacity: 0; stroke: #dc8a8a; stroke-linejoin: miter"/>
     <use xlink:href="#mde29510a30" x="465.994608" y="39.911695" style="fill-opacity: 0; stroke: #dc8a8a; stroke-linejoin: miter"/>
     <use xlink:href="#mde29510a30" x="473.575243" y="149.849218" style="fill-opacity: 0; stroke: #dc8a8a; stroke-linejoin: miter"/>
     <use xlink:href="#mde29510a30" x="481.155878" y="61.8992" style="fill-opacity: 0; stroke: #dc8a8a; stroke-linejoin: miter"/>
     <use xlink:href="#mde29510a30" x="488.736513" y="127.861713" style="fill-opacity: 0; stroke: #dc8a8a; stroke-linejoin: miter"/>
     <use xlink:href="#mde29510a30" x="496.317148" y="50.905447" style="fill-opacity: 0; stroke: #dc8a8a; stroke-linejoin: miter"/>
     <use xlink:href="#mde29510a30" x="503.897783" y="64.897496" style="fill-opacity: 0; stroke: #dc8a8a; stroke-linejoin: miter"/>
     <use xlink:href="#mde29510a30" x="511.478418" y="143.852626" style="fill-opacity: 0; stroke: #dc8a8a; stroke-linejoin: miter"/>
     <use xlink:href="#mde29510a30" x="519.059053" y="110.871369" style="fill-opacity: 0; stroke: #dc8a8a; stroke-linejoin: miter"/>
     <use xlink:href="#mde29510a30" x="526.639688" y="92.881592" style="fill-opacity: 0; stroke: #dc8a8a; stroke-linejoin: miter"/>
     <use xlink:href="#mde29510a30" x="534.220323" y="136.856601" style="fill-opacity: 0; stroke: #dc8a8a; stroke-linejoin: miter"/>
     <use xlink:href="#mde29510a30" x="541.800957" y="39.911695" style="fill-opacity: 0; stroke: #dc8a8a; stroke-linejoin: miter"/>
     <use xlink:href="#mde29510a30" x="549.381593" y="150.84865" style="fill-opacity: 0; stroke: #dc8a8a; stroke-linejoin: miter"/>
     <use xlink:href="#mde29510a30" x="556.962228" y="87.884432" style="fill-opacity: 0; stroke: #dc8a8a; stroke-linejoin: miter"/>
     <use xlink:href="#mde29510a30" x="564.542862" y="156.845242" style="fill-opacity: 0; stroke: #dc8a8a; stroke-linejoin: miter"/>
     <use xlink:href="#mde29510a30" x="572.123497" y="43.909423" style="fill-opacity: 0; stroke: #dc8a8a; stroke-linejoin: miter"/>
     <use xlink:href="#mde29510a30" x="579.704133" y="70.894088" style="fill-opacity: 0; stroke: #dc8a8a; stroke-linejoin: miter"/>
     <use xlink:href="#mde29510a30" x="587.284768" y="46.907719" style="fill-opacity: 0; stroke: #dc8a8a; stroke-linejoin: miter"/>
     <use xlink:href="#mde29510a30" x="594.865402" y="114.869097" style="fill-opacity: 0; stroke: #dc8a8a; stroke-linejoin: miter"/>
     <use xlink:href="#mde29510a30" x="602.446037" y="39.911695" style="fill-opacity: 0; stroke: #dc8a8a; stroke-linejoin: miter"/>
     <use xlink:href="#mde29510a30" x="610.026673" y="39.911695" style="fill-opacity: 0; stroke: #dc8a8a; stroke-linejoin: miter"/>
     <use xlink:href="#mde29510a30" x="617.607308" y="51.904879" style="fill-opacity: 0; stroke: #dc8a8a; stroke-linejoin: miter"/>
     <use xlink:href="#mde29510a30" x="625.187942" y="154.846378" style="fill-opacity: 0; stroke: #dc8a8a; stroke-linejoin: miter"/>
     <use xlink:href="#mde29510a30" x="632.768577" y="130.860009" style="fill-opacity: 0; stroke: #dc8a8a; stroke-linejoin: miter"/>
     <use xlink:href="#mde29510a30" x="640.349213" y="57.901472" style="fill-opacity: 0; stroke: #dc8a8a; stroke-linejoin: miter"/>
     <use xlink:href="#mde29510a30" x="647.929848" y="101.876481" style="fill-opacity: 0; stroke: #dc8a8a; stroke-linejoin: miter"/>
     <use xlink:href="#mde29510a30" x="655.510482" y="74.891816" style="fill-opacity: 0; stroke: #dc8a8a; stroke-linejoin: miter"/>
     <use xlink:href="#mde29510a30" x="663.091117" y="156.845242" style="fill-opacity: 0; stroke: #dc8a8a; stroke-linejoin: miter"/>
     <use xlink:href="#mde29510a30" x="670.671753" y="155.84581" style="fill-opacity: 0; stroke: #dc8a8a; stroke-linejoin: miter"/>
     <use xlink:href="#mde29510a30" x="678.252388" y="39.911695" style="fill-opacity: 0; stroke: #dc8a8a; stroke-linejoin: miter"/>
     <use xlink:href="#mde29510a30" x="685.833022" y="106.873641" style="fill-opacity: 0; stroke: #dc8a8a; stroke-linejoin: miter"/>
     <use xlink:href="#mde29510a30" x="693.413657" y="46.907719" style="fill-opacity: 0; stroke: #dc8a8a; stroke-linejoin: miter"/>
     <use xlink:href="#mde29510a30" x="700.994293" y="75.891248" style="fill-opacity: 0; stroke: #dc8a8a; stroke-linejoin: miter"/>
     <use xlink:href="#mde29510a30" x="708.574928" y="48.906583" style="fill-opacity: 0; stroke: #dc8a8a; stroke-linejoin: miter"/>
     <use xlink:href="#mde29510a30" x="716.155562" y="49.906015" style="fill-opacity: 0; stroke: #dc8a8a; stroke-linejoin: miter"/>
     <use xlink:href="#mde29510a30" x="723.736198" y="39.911695" style="fill-opacity: 0; stroke: #dc8a8a; stroke-linejoin: miter"/>
     <use xlink:href="#mde29510a30" x="731.316833" y="136.856601" style="fill-opacity: 0; stroke: #dc8a8a; stroke-linejoin: miter"/>
     <use xlink:href="#mde29510a30" x="738.897468" y="126.862281" style="fill-opacity: 0; stroke: #dc8a8a; stroke-linejoin: miter"/>
     <use xlink:href="#mde29510a30" x="746.478102" y="144.852058" style="fill-opacity: 0; stroke: #dc8a8a; stroke-linejoin: miter"/>
     <use xlink:href="#mde29510a30" x="754.058738" y="79.888976" style="fill-opacity: 0; stroke: #dc8a8a; stroke-linejoin: miter"/>
     <use xlink:href="#mde29510a30" x="761.639373" y="109.871937" style="fill-opacity: 0; stroke: #dc8a8a; stroke-linejoin: miter"/>
     <use xlink:href="#mde29510a30" x="769.220008" y="39.911695" style="fill-opacity: 0; stroke: #dc8a8a; stroke-linejoin: miter"/>
     <use xlink:href="#mde29510a30" x="776.800642" y="39.911695" style="fill-opacity: 0; stroke: #dc8a8a; stroke-linejoin: miter"/>
     <use xlink:href="#mde29510a30" x="784.381278" y="82.887272" style="fill-opacity: 0; stroke: #dc8a8a; stroke-linejoin: miter"/>
     <use xlink:href="#mde29510a30" x="791.961913" y="105.874209" style="fill-opacity: 0; stroke: #dc8a8a; stroke-linejoin: miter"/>
     <use xlink:href="#mde29510a30" x="799.542547" y="47.907151" style="fill-opacity: 0; stroke: #dc8a8a; stroke-linejoin: miter"/>
     <use xlink:href="#mde29510a30" x="807.123182" y="144.852058" style="fill-opacity: 0; stroke: #dc8a8a; stroke-linejoin: miter"/>
    </g>
   </g>
   <g id="line2d_21">
    <path d="M 56.640318 42.327032 
L 64.220953 33.435456 
L 71.801588 108.089007 
L 79.382223 89.722461 
L 86.962858 69.907207 
L 94.543493 64.020103 
L 102.124128 73.895335 
L 109.704763 79.715422 
L 117.285398 53.881082 
L 124.866033 79.881793 
L 132.446668 69.017232 
L 140.027303 73.913269 
L 147.607938 81.430626 
L 155.188573 49.017742 
L 162.769208 54.855549 
L 170.349843 67.11693 
L 177.930477 114.52274 
L 185.511112 139.495673 
L 193.091747 83.500487 
L 200.672382 147.060859 
L 208.253017 85.715232 
L 215.833652 37.973427 
L 223.414288 46.433746 
L 230.994923 145.929168 
L 238.575558 36.645058 
L 246.156193 63.258252 
L 253.736828 95.77358 
L 261.317463 70.50248 
L 268.898098 67.573526 
L 276.478733 82.231784 
L 284.059368 148.599032 
L 291.640003 105.789975 
L 299.220638 41.59723 
L 306.801272 162.889619 
L 314.381908 152.971638 
L 321.962542 137.559197 
L 329.543178 150.149761 
L 337.123812 107.093547 
L 344.704448 46.046972 
L 352.285082 136.553065 
L 359.865718 154.426335 
L 367.446352 157.663209 
L 375.026988 113.809274 
L 382.607622 55.686452 
L 390.188258 73.851796 
L 397.768892 118.401483 
L 405.349528 42.551728 
L 412.930162 58.252705 
L 420.510798 147.760452 
L 428.091432 69.964082 
L 435.672068 67.500265 
L 443.252702 126.738873 
L 450.833338 135.269729 
L 458.413972 46.010555 
L 465.994608 54.349459 
L 473.575243 148.318041 
L 481.155878 74.608553 
L 488.736513 133.579377 
L 496.317148 52.102788 
L 503.897783 74.433336 
L 511.478418 142.397899 
L 519.059053 127.455942 
L 526.639688 109.565691 
L 534.220323 142.723615 
L 541.800957 41.846082 
L 549.381593 148.715133 
L 556.962228 50.31054 
L 564.542862 154.837993 
L 572.123497 52.387561 
L 579.704133 94.937888 
L 587.284768 68.726527 
L 594.865402 98.122732 
L 602.446037 59.152165 
L 610.026673 47.69644 
L 617.607308 67.444434 
L 625.187942 153.796722 
L 632.768577 141.404417 
L 640.349213 40.014153 
L 647.929848 77.331858 
L 655.510482 75.792282 
L 663.091117 150.641693 
L 670.671753 157.649508 
L 678.252388 42.062443 
L 685.833022 100.886816 
L 693.413657 40.273359 
L 700.994293 58.139206 
L 708.574928 58.539887 
L 716.155562 51.587075 
L 723.736198 49.660191 
L 731.316833 143.249497 
L 738.897468 135.555983 
L 746.478102 137.175602 
L 754.058738 109.419245 
L 761.639373 103.710971 
L 769.220008 56.286613 
L 776.800642 46.143909 
L 784.381278 80.536001 
L 791.961913 94.41641 
L 799.542547 44.047986 
L 807.123182 145.818563 
" clip-path="url(#p113ddae0ca)" style="fill: none; stroke-dasharray: 3.7,1.6; stroke-dashoffset: 0; stroke: #89d68c"/>
    <defs>
     <path id="m3b45a87459" d="M 0 -2 
L -2 2 
L 2 2 
z
" style="stroke: #89d68c; stroke-linejoin: miter"/>
    </defs>
    <g clip-path="url(#p113ddae0ca)">
     <use xlink:href="#m3b45a87459" x="56.640318" y="42.327032" style="fill-opacity: 0; stroke: #89d68c; stroke-linejoin: miter"/>
     <use xlink:href="#m3b45a87459" x="64.220953" y="33.435456" style="fill-opacity: 0; stroke: #89d68c; stroke-linejoin: miter"/>
     <use xlink:href="#m3b45a87459" x="71.801588" y="108.089007" style="fill-opacity: 0; stroke: #89d68c; stroke-linejoin: miter"/>
     <use xlink:href="#m3b45a87459" x="79.382223" y="89.722461" style="fill-opacity: 0; stroke: #89d68c; stroke-linejoin: miter"/>
     <use xlink:href="#m3b45a87459" x="86.962858" y="69.907207" style="fill-opacity: 0; stroke: #89d68c; stroke-linejoin: miter"/>
     <use xlink:href="#m3b45a87459" x="94.543493" y="64.020103" style="fill-opacity: 0; stroke: #89d68c; stroke-linejoin: miter"/>
     <use xlink:href="#m3b45a87459" x="102.124128" y="73.895335" style="fill-opacity: 0; stroke: #89d68c; stroke-linejoin: miter"/>
     <use xlink:href="#m3b45a87459" x="109.704763" y="79.715422" style="fill-opacity: 0; stroke: #89d68c; stroke-linejoin: miter"/>
     <use xlink:href="#m3b45a87459" x="117.285398" y="53.881082" style="fill-opacity: 0; stroke: #89d68c; stroke-linejoin: miter"/>
     <use xlink:href="#m3b45a87459" x="124.866033" y="79.881793" style="fill-opacity: 0; stroke: #89d68c; stroke-linejoin: miter"/>
     <use xlink:href="#m3b45a87459" x="132.446668" y="69.017232" style="fill-opacity: 0; stroke: #89d68c; stroke-linejoin: miter"/>
     <use xlink:href="#m3b45a87459" x="140.027303" y="73.913269" style="fill-opacity: 0; stroke: #89d68c; stroke-linejoin: miter"/>
     <use xlink:href="#m3b45a87459" x="147.607938" y="81.430626" style="fill-opacity: 0; stroke: #89d68c; stroke-linejoin: miter"/>
     <use xlink:href="#m3b45a87459" x="155.188573" y="49.017742" style="fill-opacity: 0; stroke: #89d68c; stroke-linejoin: miter"/>
     <use xlink:href="#m3b45a87459" x="162.769208" y="54.855549" style="fill-opacity: 0; stroke: #89d68c; stroke-linejoin: miter"/>
     <use xlink:href="#m3b45a87459" x="170.349843" y="67.11693" style="fill-opacity: 0; stroke: #89d68c; stroke-linejoin: miter"/>
     <use xlink:href="#m3b45a87459" x="177.930477" y="114.52274" style="fill-opacity: 0; stroke: #89d68c; stroke-linejoin: miter"/>
     <use xlink:href="#m3b45a87459" x="185.511112" y="139.495673" style="fill-opacity: 0; stroke: #89d68c; stroke-linejoin: miter"/>
     <use xlink:href="#m3b45a87459" x="193.091747" y="83.500487" style="fill-opacity: 0; stroke: #89d68c; stroke-linejoin: miter"/>
     <use xlink:href="#m3b45a87459" x="200.672382" y="147.060859" style="fill-opacity: 0; stroke: #89d68c; stroke-linejoin: miter"/>
     <use xlink:href="#m3b45a87459" x="208.253017" y="85.715232" style="fill-opacity: 0; stroke: #89d68c; stroke-linejoin: miter"/>
     <use xlink:href="#m3b45a87459" x="215.833652" y="37.973427" style="fill-opacity: 0; stroke: #89d68c; stroke-linejoin: miter"/>
     <use xlink:href="#m3b45a87459" x="223.414288" y="46.433746" style="fill-opacity: 0; stroke: #89d68c; stroke-linejoin: miter"/>
     <use xlink:href="#m3b45a87459" x="230.994923" y="145.929168" style="fill-opacity: 0; stroke: #89d68c; stroke-linejoin: miter"/>
     <use xlink:href="#m3b45a87459" x="238.575558" y="36.645058" style="fill-opacity: 0; stroke: #89d68c; stroke-linejoin: miter"/>
     <use xlink:href="#m3b45a87459" x="246.156193" y="63.258252" style="fill-opacity: 0; stroke: #89d68c; stroke-linejoin: miter"/>
     <use xlink:href="#m3b45a87459" x="253.736828" y="95.77358" style="fill-opacity: 0; stroke: #89d68c; stroke-linejoin: miter"/>
     <use xlink:href="#m3b45a87459" x="261.317463" y="70.50248" style="fill-opacity: 0; stroke: #89d68c; stroke-linejoin: miter"/>
     <use xlink:href="#m3b45a87459" x="268.898098" y="67.573526" style="fill-opacity: 0; stroke: #89d68c; stroke-linejoin: miter"/>
     <use xlink:href="#m3b45a87459" x="276.478733" y="82.231784" style="fill-opacity: 0; stroke: #89d68c; stroke-linejoin: miter"/>
     <use xlink:href="#m3b45a87459" x="284.059368" y="148.599032" style="fill-opacity: 0; stroke: #89d68c; stroke-linejoin: miter"/>
     <use xlink:href="#m3b45a87459" x="291.640003" y="105.789975" style="fill-opacity: 0; stroke: #89d68c; stroke-linejoin: miter"/>
     <use xlink:href="#m3b45a87459" x="299.220638" y="41.59723" style="fill-opacity: 0; stroke: #89d68c; stroke-linejoin: miter"/>
     <use xlink:href="#m3b45a87459" x="306.801272" y="162.889619" style="fill-opacity: 0; stroke: #89d68c; stroke-linejoin: miter"/>
     <use xlink:href="#m3b45a87459" x="314.381908" y="152.971638" style="fill-opacity: 0; stroke: #89d68c; stroke-linejoin: miter"/>
     <use xlink:href="#m3b45a87459" x="321.962542" y="137.559197" style="fill-opacity: 0; stroke: #89d68c; stroke-linejoin: miter"/>
     <use xlink:href="#m3b45a87459" x="329.543178" y="150.149761" style="fill-opacity: 0; stroke: #89d68c; stroke-linejoin: miter"/>
     <use xlink:href="#m3b45a87459" x="337.123812" y="107.093547" style="fill-opacity: 0; stroke: #89d68c; stroke-linejoin: miter"/>
     <use xlink:href="#m3b45a87459" x="344.704448" y="46.046972" style="fill-opacity: 0; stroke: #89d68c; stroke-linejoin: miter"/>
     <use xlink:href="#m3b45a87459" x="352.285082" y="136.553065" style="fill-opacity: 0; stroke: #89d68c; stroke-linejoin: miter"/>
     <use xlink:href="#m3b45a87459" x="359.865718" y="154.426335" style="fill-opacity: 0; stroke: #89d68c; stroke-linejoin: miter"/>
     <use xlink:href="#m3b45a87459" x="367.446352" y="157.663209" style="fill-opacity: 0; stroke: #89d68c; stroke-linejoin: miter"/>
     <use xlink:href="#m3b45a87459" x="375.026988" y="113.809274" style="fill-opacity: 0; stroke: #89d68c; stroke-linejoin: miter"/>
     <use xlink:href="#m3b45a87459" x="382.607622" y="55.686452" style="fill-opacity: 0; stroke: #89d68c; stroke-linejoin: miter"/>
     <use xlink:href="#m3b45a87459" x="390.188258" y="73.851796" style="fill-opacity: 0; stroke: #89d68c; stroke-linejoin: miter"/>
     <use xlink:href="#m3b45a87459" x="397.768892" y="118.401483" style="fill-opacity: 0; stroke: #89d68c; stroke-linejoin: miter"/>
     <use xlink:href="#m3b45a87459" x="405.349528" y="42.551728" style="fill-opacity: 0; stroke: #89d68c; stroke-linejoin: miter"/>
     <use xlink:href="#m3b45a87459" x="412.930162" y="58.252705" style="fill-opacity: 0; stroke: #89d68c; stroke-linejoin: miter"/>
     <use xlink:href="#m3b45a87459" x="420.510798" y="147.760452" style="fill-opacity: 0; stroke: #89d68c; stroke-linejoin: miter"/>
     <use xlink:href="#m3b45a87459" x="428.091432" y="69.964082" style="fill-opacity: 0; stroke: #89d68c; stroke-linejoin: miter"/>
     <use xlink:href="#m3b45a87459" x="435.672068" y="67.500265" style="fill-opacity: 0; stroke: #89d68c; stroke-linejoin: miter"/>
     <use xlink:href="#m3b45a87459" x="443.252702" y="126.738873" style="fill-opacity: 0; stroke: #89d68c; stroke-linejoin: miter"/>
     <use xlink:href="#m3b45a87459" x="450.833338" y="135.269729" style="fill-opacity: 0; stroke: #89d68c; stroke-linejoin: miter"/>
     <use xlink:href="#m3b45a87459" x="458.413972" y="46.010555" style="fill-opacity: 0; stroke: #89d68c; stroke-linejoin: miter"/>
     <use xlink:href="#m3b45a87459" x="465.994608" y="54.349459" style="fill-opacity: 0; stroke: #89d68c; stroke-linejoin: miter"/>
     <use xlink:href="#m3b45a87459" x="473.575243" y="148.318041" style="fill-opacity: 0; stroke: #89d68c; stroke-linejoin: miter"/>
     <use xlink:href="#m3b45a87459" x="481.155878" y="74.608553" style="fill-opacity: 0; stroke: #89d68c; stroke-linejoin: miter"/>
     <use xlink:href="#m3b45a87459" x="488.736513" y="133.579377" style="fill-opacity: 0; stroke: #89d68c; stroke-linejoin: miter"/>
     <use xlink:href="#m3b45a87459" x="496.317148" y="52.102788" style="fill-opacity: 0; stroke: #89d68c; stroke-linejoin: miter"/>
     <use xlink:href="#m3b45a87459" x="503.897783" y="74.433336" style="fill-opacity: 0; stroke: #89d68c; stroke-linejoin: miter"/>
     <use xlink:href="#m3b45a87459" x="511.478418" y="142.397899" style="fill-opacity: 0; stroke: #89d68c; stroke-linejoin: miter"/>
     <use xlink:href="#m3b45a87459" x="519.059053" y="127.455942" style="fill-opacity: 0; stroke: #89d68c; stroke-linejoin: miter"/>
     <use xlink:href="#m3b45a87459" x="526.639688" y="109.565691" style="fill-opacity: 0; stroke: #89d68c; stroke-linejoin: miter"/>
     <use xlink:href="#m3b45a87459" x="534.220323" y="142.723615" style="fill-opacity: 0; stroke: #89d68c; stroke-linejoin: miter"/>
     <use xlink:href="#m3b45a87459" x="541.800957" y="41.846082" style="fill-opacity: 0; stroke: #89d68c; stroke-linejoin: miter"/>
     <use xlink:href="#m3b45a87459" x="549.381593" y="148.715133" style="fill-opacity: 0; stroke: #89d68c; stroke-linejoin: miter"/>
     <use xlink:href="#m3b45a87459" x="556.962228" y="50.31054" style="fill-opacity: 0; stroke: #89d68c; stroke-linejoin: miter"/>
     <use xlink:href="#m3b45a87459" x="564.542862" y="154.837993" style="fill-opacity: 0; stroke: #89d68c; stroke-linejoin: miter"/>
     <use xlink:href="#m3b45a87459" x="572.123497" y="52.387561" style="fill-opacity: 0; stroke: #89d68c; stroke-linejoin: miter"/>
     <use xlink:href="#m3b45a87459" x="579.704133" y="94.937888" style="fill-opacity: 0; stroke: #89d68c; stroke-linejoin: miter"/>
     <use xlink:href="#m3b45a87459" x="587.284768" y="68.726527" style="fill-opacity: 0; stroke: #89d68c; stroke-linejoin: miter"/>
     <use xlink:href="#m3b45a87459" x="594.865402" y="98.122732" style="fill-opacity: 0; stroke: #89d68c; stroke-linejoin: miter"/>
     <use xlink:href="#m3b45a87459" x="602.446037" y="59.152165" style="fill-opacity: 0; stroke: #89d68c; stroke-linejoin: miter"/>
     <use xlink:href="#m3b45a87459" x="610.026673" y="47.69644" style="fill-opacity: 0; stroke: #89d68c; stroke-linejoin: miter"/>
     <use xlink:href="#m3b45a87459" x="617.607308" y="67.444434" style="fill-opacity: 0; stroke: #89d68c; stroke-linejoin: miter"/>
     <use xlink:href="#m3b45a87459" x="625.187942" y="153.796722" style="fill-opacity: 0; stroke: #89d68c; stroke-linejoin: miter"/>
     <use xlink:href="#m3b45a87459" x="632.768577" y="141.404417" style="fill-opacity: 0; stroke: #89d68c; stroke-linejoin: miter"/>
     <use xlink:href="#m3b45a87459" x="640.349213" y="40.014153" style="fill-opacity: 0; stroke: #89d68c; stroke-linejoin: miter"/>
     <use xlink:href="#m3b45a87459" x="647.929848" y="77.331858" style="fill-opacity: 0; stroke: #89d68c; stroke-linejoin: miter"/>
     <use xlink:href="#m3b45a87459" x="655.510482" y="75.792282" style="fill-opacity: 0; stroke: #89d68c; stroke-linejoin: miter"/>
     <use xlink:href="#m3b45a87459" x="663.091117" y="150.641693" style="fill-opacity: 0; stroke: #89d68c; stroke-linejoin: miter"/>
     <use xlink:href="#m3b45a87459" x="670.671753" y="157.649508" style="fill-opacity: 0; stroke: #89d68c; stroke-linejoin: miter"/>
     <use xlink:href="#m3b45a87459" x="678.252388" y="42.062443" style="fill-opacity: 0; stroke: #89d68c; stroke-linejoin: miter"/>
     <use xlink:href="#m3b45a87459" x="685.833022" y="100.886816" style="fill-opacity: 0; stroke: #89d68c; stroke-linejoin: miter"/>
     <use xlink:href="#m3b45a87459" x="693.413657" y="40.273359" style="fill-opacity: 0; stroke: #89d68c; stroke-linejoin: miter"/>
     <use xlink:href="#m3b45a87459" x="700.994293" y="58.139206" style="fill-opacity: 0; stroke: #89d68c; stroke-linejoin: miter"/>
     <use xlink:href="#m3b45a87459" x="708.574928" y="58.539887" style="fill-opacity: 0; stroke: #89d68c; stroke-linejoin: miter"/>
     <use xlink:href="#m3b45a87459" x="716.155562" y="51.587075" style="fill-opacity: 0; stroke: #89d68c; stroke-linejoin: miter"/>
     <use xlink:href="#m3b45a87459" x="723.736198" y="49.660191" style="fill-opacity: 0; stroke: #89d68c; stroke-linejoin: miter"/>
     <use xlink:href="#m3b45a87459" x="731.316833" y="143.249497" style="fill-opacity: 0; stroke: #89d68c; stroke-linejoin: miter"/>
     <use xlink:href="#m3b45a87459" x="738.897468" y="135.555983" style="fill-opacity: 0; stroke: #89d68c; stroke-linejoin: miter"/>
     <use xlink:href="#m3b45a87459" x="746.478102" y="137.175602" style="fill-opacity: 0; stroke: #89d68c; stroke-linejoin: miter"/>
     <use xlink:href="#m3b45a87459" x="754.058738" y="109.419245" style="fill-opacity: 0; stroke: #89d68c; stroke-linejoin: miter"/>
     <use xlink:href="#m3b45a87459" x="761.639373" y="103.710971" style="fill-opacity: 0; stroke: #89d68c; stroke-linejoin: miter"/>
     <use xlink:href="#m3b45a87459" x="769.220008" y="56.286613" style="fill-opacity: 0; stroke: #89d68c; stroke-linejoin: miter"/>
     <use xlink:href="#m3b45a87459" x="776.800642" y="46.143909" style="fill-opacity: 0; stroke: #89d68c; stroke-linejoin: miter"/>
     <use xlink:href="#m3b45a87459" x="784.381278" y="80.536001" style="fill-opacity: 0; stroke: #89d68c; stroke-linejoin: miter"/>
     <use xlink:href="#m3b45a87459" x="791.961913" y="94.41641" style="fill-opacity: 0; stroke: #89d68c; stroke-linejoin: miter"/>
     <use xlink:href="#m3b45a87459" x="799.542547" y="44.047986" style="fill-opacity: 0; stroke: #89d68c; stroke-linejoin: miter"/>
     <use xlink:href="#m3b45a87459" x="807.123182" y="145.818563" style="fill-opacity: 0; stroke: #89d68c; stroke-linejoin: miter"/>
    </g>
   </g>
   <g id="line2d_22">
    <path d="M 52.85 164.840698 
L 810.9135 164.840698 
" clip-path="url(#p113ddae0ca)" style="fill: none; stroke: #8c8c8c; stroke-width: 0.8; stroke-linecap: square"/>
   </g>
   <g id="patch_103">
    <path d="M 52.85 202.84 
L 52.85 25.44 
" style="fill: none; stroke: #000000; stroke-width: 0.8; stroke-linejoin: miter; stroke-linecap: square"/>
   </g>
   <g id="patch_104">
    <path d="M 810.9135 202.84 
L 810.9135 25.44 
" style="fill: none; stroke: #000000; stroke-width: 0.8; stroke-linejoin: miter; stroke-linecap: square"/>
   </g>
   <g id="patch_105">
    <path d="M 52.85 202.84 
L 810.9135 202.84 
" style="fill: none; stroke: #000000; stroke-width: 0.8; stroke-linejoin: miter; stroke-linecap: square"/>
   </g>
   <g id="patch_106">
    <path d="M 52.85 25.44 
L 810.9135 25.44 
" style="fill: none; stroke: #000000; stroke-width: 0.8; stroke-linejoin: miter; stroke-linecap: square"/>
   </g>
   <g id="text_15">
    <!-- FD001 Prediction -->
    <g transform="translate(384.916906 19.44)scale(0.11 -0.11)">
     <defs>
      <path id="DejaVuSans-46" d="M 628 4666 
L 3309 4666 
L 3309 4134 
L 1259 4134 
L 1259 2759 
L 3109 2759 
L 3109 2228 
L 1259 2228 
L 1259 0 
L 628 0 
L 628 4666 
z
" transform="scale(0.015625)"/>
      <path id="DejaVuSans-44" d="M 1259 4147 
L 1259 519 
L 2022 519 
Q 2988 519 3436 956 
Q 3884 1394 3884 2338 
Q 3884 3275 3436 3711 
Q 2988 4147 2022 4147 
L 1259 4147 
z
M 628 4666 
L 1925 4666 
Q 3281 4666 3915 4102 
Q 4550 3538 4550 2338 
Q 4550 1131 3912 565 
Q 3275 0 1925 0 
L 628 0 
L 628 4666 
z
" transform="scale(0.015625)"/>
      <path id="DejaVuSans-50" d="M 1259 4147 
L 1259 2394 
L 2053 2394 
Q 2494 2394 2734 2622 
Q 2975 2850 2975 3272 
Q 2975 3691 2734 3919 
Q 2494 4147 2053 4147 
L 1259 4147 
z
M 628 4666 
L 2053 4666 
Q 2838 4666 3239 4311 
Q 3641 3956 3641 3272 
Q 3641 2581 3239 2228 
Q 2838 1875 2053 1875 
L 1259 1875 
L 1259 0 
L 628 0 
L 628 4666 
z
" transform="scale(0.015625)"/>
      <path id="DejaVuSans-72" d="M 2631 2963 
Q 2534 3019 2420 3045 
Q 2306 3072 2169 3072 
Q 1681 3072 1420 2755 
Q 1159 2438 1159 1844 
L 1159 0 
L 581 0 
L 581 3500 
L 1159 3500 
L 1159 2956 
Q 1341 3275 1631 3429 
Q 1922 3584 2338 3584 
Q 2397 3584 2469 3576 
Q 2541 3569 2628 3553 
L 2631 2963 
z
" transform="scale(0.015625)"/>
      <path id="DejaVuSans-74" d="M 1172 4494 
L 1172 3500 
L 2356 3500 
L 2356 3053 
L 1172 3053 
L 1172 1153 
Q 1172 725 1289 603 
Q 1406 481 1766 481 
L 2356 481 
L 2356 0 
L 1766 0 
Q 1100 0 847 248 
Q 594 497 594 1153 
L 594 3053 
L 172 3053 
L 172 3500 
L 594 3500 
L 594 4494 
L 1172 4494 
z
" transform="scale(0.015625)"/>
      <path id="DejaVuSans-6f" d="M 1959 3097 
Q 1497 3097 1228 2736 
Q 959 2375 959 1747 
Q 959 1119 1226 758 
Q 1494 397 1959 397 
Q 2419 397 2687 759 
Q 2956 1122 2956 1747 
Q 2956 2369 2687 2733 
Q 2419 3097 1959 3097 
z
M 1959 3584 
Q 2709 3584 3137 3096 
Q 3566 2609 3566 1747 
Q 3566 888 3137 398 
Q 2709 -91 1959 -91 
Q 1206 -91 779 398 
Q 353 888 353 1747 
Q 353 2609 779 3096 
Q 1206 3584 1959 3584 
z
" transform="scale(0.015625)"/>
     </defs>
     <use xlink:href="#DejaVuSans-46"/>
     <use xlink:href="#DejaVuSans-44" x="57.519531"/>
     <use xlink:href="#DejaVuSans-30" x="134.521484"/>
     <use xlink:href="#DejaVuSans-30" x="198.144531"/>
     <use xlink:href="#DejaVuSans-31" x="261.767578"/>
     <use xlink:href="#DejaVuSans-20" x="325.390625"/>
     <use xlink:href="#DejaVuSans-50" x="357.177734"/>
     <use xlink:href="#DejaVuSans-72" x="415.730469"/>
     <use xlink:href="#DejaVuSans-65" x="454.59375"/>
     <use xlink:href="#DejaVuSans-64" x="516.117188"/>
     <use xlink:href="#DejaVuSans-69" x="579.59375"/>
     <use xlink:href="#DejaVuSans-63" x="607.376953"/>
     <use xlink:href="#DejaVuSans-74" x="662.357422"/>
     <use xlink:href="#DejaVuSans-69" x="701.566406"/>
     <use xlink:href="#DejaVuSans-6f" x="729.349609"/>
     <use xlink:href="#DejaVuSans-6e" x="790.53125"/>
    </g>
   </g>
   <g id="legend_1">
    <g id="patch_107">
     <path d="M 714.49475 67.0675 
L 805.3135 67.0675 
Q 806.9135 67.0675 806.9135 65.4675 
L 806.9135 31.04 
Q 806.9135 29.44 805.3135 29.44 
L 714.49475 29.44 
Q 712.89475 29.44 712.89475 31.04 
L 712.89475 65.4675 
Q 712.89475 67.0675 714.49475 67.0675 
z
" style="fill: #ffffff; opacity: 0.8; stroke: #cccccc; stroke-linejoin: miter"/>
    </g>
    <g id="line2d_23">
     <path d="M 716.09475 35.91875 
L 724.09475 35.91875 
L 732.09475 35.91875 
" style="fill: none; stroke-dasharray: 3.7,1.6; stroke-dashoffset: 0; stroke: #dc8a8a"/>
     <g>
      <use xlink:href="#mde29510a30" x="724.09475" y="35.91875" style="fill-opacity: 0; stroke: #dc8a8a; stroke-linejoin: miter"/>
     </g>
    </g>
    <g id="text_16">
     <!-- True RUL -->
     <g transform="translate(738.49475 38.71875)scale(0.08 -0.08)">
      <defs>
       <path id="DejaVuSans-54" d="M -19 4666 
L 3928 4666 
L 3928 4134 
L 2272 4134 
L 2272 0 
L 1638 0 
L 1638 4134 
L -19 4134 
L -19 4666 
z
" transform="scale(0.015625)"/>
       <path id="DejaVuSans-75" d="M 544 1381 
L 544 3500 
L 1119 3500 
L 1119 1403 
Q 1119 906 1312 657 
Q 1506 409 1894 409 
Q 2359 409 2629 706 
Q 2900 1003 2900 1516 
L 2900 3500 
L 3475 3500 
L 3475 0 
L 2900 0 
L 2900 538 
Q 2691 219 2414 64 
Q 2138 -91 1772 -91 
Q 1169 -91 856 284 
Q 544 659 544 1381 
z
M 1991 3584 
L 1991 3584 
z
" transform="scale(0.015625)"/>
      </defs>
      <use xlink:href="#DejaVuSans-54"/>
      <use xlink:href="#DejaVuSans-72" x="46.333984"/>
      <use xlink:href="#DejaVuSans-75" x="87.447266"/>
      <use xlink:href="#DejaVuSans-65" x="150.826172"/>
      <use xlink:href="#DejaVuSans-20" x="212.349609"/>
      <use xlink:href="#DejaVuSans-52" x="244.136719"/>
      <use xlink:href="#DejaVuSans-55" x="313.619141"/>
      <use xlink:href="#DejaVuSans-4c" x="386.8125"/>
     </g>
    </g>
    <g id="line2d_24">
     <path d="M 716.09475 47.66125 
L 724.09475 47.66125 
L 732.09475 47.66125 
" style="fill: none; stroke-dasharray: 3.7,1.6; stroke-dashoffset: 0; stroke: #89d68c"/>
     <g>
      <use xlink:href="#m3b45a87459" x="724.09475" y="47.66125" style="fill-opacity: 0; stroke: #89d68c; stroke-linejoin: miter"/>
     </g>
    </g>
    <g id="text_17">
     <!-- Predicted RUL -->
     <g transform="translate(738.49475 50.46125)scale(0.08 -0.08)">
      <use xlink:href="#DejaVuSans-50"/>
      <use xlink:href="#DejaVuSans-72" x="58.552734"/>
      <use xlink:href="#DejaVuSans-65" x="97.416016"/>
      <use xlink:href="#DejaVuSans-64" x="158.939453"/>
      <use xlink:href="#DejaVuSans-69" x="222.416016"/>
      <use xlink:href="#DejaVuSans-63" x="250.199219"/>
      <use xlink:href="#DejaVuSans-74" x="305.179688"/>
      <use xlink:href="#DejaVuSans-65" x="344.388672"/>
      <use xlink:href="#DejaVuSans-64" x="405.912109"/>
      <use xlink:href="#DejaVuSans-20" x="469.388672"/>
      <use xlink:href="#DejaVuSans-52" x="501.175781"/>
      <use xlink:href="#DejaVuSans-55" x="570.658203"/>
      <use xlink:href="#DejaVuSans-4c" x="643.851562"/>
     </g>
    </g>
    <g id="patch_108">
     <path d="M 716.09475 62.20375 
L 732.09475 62.20375 
L 732.09475 56.60375 
L 716.09475 56.60375 
z
" style="fill: #5fd6e8; opacity: 0.9"/>
    </g>
    <g id="text_18">
     <!-- Error (Pred-True) -->
     <g transform="translate(738.49475 62.20375)scale(0.08 -0.08)">
      <defs>
       <path id="DejaVuSans-2d" d="M 313 2009 
L 1997 2009 
L 1997 1497 
L 313 1497 
L 313 2009 
z
" transform="scale(0.015625)"/>
      </defs>
      <use xlink:href="#DejaVuSans-45"/>
      <use xlink:href="#DejaVuSans-72" x="63.183594"/>
      <use xlink:href="#DejaVuSans-72" x="102.546875"/>
      <use xlink:href="#DejaVuSans-6f" x="141.410156"/>
      <use xlink:href="#DejaVuSans-72" x="202.591797"/>
      <use xlink:href="#DejaVuSans-20" x="243.705078"/>
      <use xlink:href="#DejaVuSans-28" x="275.492188"/>
      <use xlink:href="#DejaVuSans-50" x="314.505859"/>
      <use xlink:href="#DejaVuSans-72" x="373.058594"/>
      <use xlink:href="#DejaVuSans-65" x="411.921875"/>
      <use xlink:href="#DejaVuSans-64" x="473.445312"/>
      <use xlink:href="#DejaVuSans-2d" x="536.921875"/>
      <use xlink:href="#DejaVuSans-54" x="563.880859"/>
      <use xlink:href="#DejaVuSans-72" x="610.214844"/>
      <use xlink:href="#DejaVuSans-75" x="651.328125"/>
      <use xlink:href="#DejaVuSans-65" x="714.707031"/>
      <use xlink:href="#DejaVuSans-29" x="776.230469"/>
     </g>
    </g>
   </g>
  </g>
 </g>
 <defs>
  <clipPath id="p113ddae0ca">
   <rect x="52.85" y="25.44" width="758.0635" height="177.4"/>
  </clipPath>
 </defs>
</svg>
